<svg xmlns="http://www.w3.org/2000/svg" xmlns:xlink="http://www.w3.org/1999/xlink" preserveAspectRatio="xMidYMid meet" version="1.0" viewBox="79.68 125.76 216 121.02" zoomAndPan="magnify"><defs><clipPath id="7022ee6657"><path d="M 79.679688 125.761719 L 295.679688 125.761719 L 295.679688 194.703125 L 79.679688 194.703125 Z M 79.679688 125.761719" clip-rule="nonzero"/></clipPath><clipPath id="a2c6964829"><path d="M 277.378906 153.523438 C 276.171875 153.523438 275.148438 154.320312 274.8125 155.417969 L 244.320312 155.417969 L 233.855469 144.976562 L 221.226562 144.976562 L 213.648438 137.417969 L 203.40625 137.417969 L 203.40625 138.855469 L 213.050781 138.855469 L 220.628906 146.417969 L 233.257812 146.417969 L 243.722656 156.859375 L 274.777344 156.859375 C 275.070312 158.023438 276.125 158.882812 277.378906 158.882812 C 278.863281 158.882812 280.066406 157.683594 280.066406 156.203125 C 280.066406 154.722656 278.863281 153.523438 277.378906 153.523438 Z M 121.59375 138.40625 C 123.34375 138.40625 124.832031 137.28125 125.371094 135.722656 L 128.429688 135.722656 L 136.003906 128.160156 L 150.644531 128.160156 L 156.65625 134.160156 L 171.957031 134.160156 L 176.671875 131.761719 L 157.652344 131.761719 L 151.640625 125.761719 L 135.007812 125.761719 L 127.433594 133.320312 L 125.4375 133.320312 C 124.960938 131.652344 123.421875 130.429688 121.59375 130.429688 C 119.386719 130.429688 117.597656 132.214844 117.597656 134.417969 C 117.597656 136.617188 119.386719 138.40625 121.59375 138.40625 Z M 218.707031 134.160156 L 224.71875 128.160156 L 239.359375 128.160156 L 246.933594 135.722656 L 249.992188 135.722656 C 250.535156 137.28125 252.019531 138.40625 253.769531 138.40625 C 255.976562 138.40625 257.765625 136.617188 257.765625 134.417969 C 257.765625 132.214844 255.976562 130.429688 253.769531 130.429688 C 251.941406 130.429688 250.402344 131.652344 249.925781 133.320312 L 247.929688 133.320312 L 240.355469 125.761719 L 223.722656 125.761719 L 217.710938 131.761719 L 196.65625 131.761719 L 203.40625 134.160156 Z M 82.367188 150.355469 C 83.582031 150.355469 84.609375 149.546875 84.941406 148.441406 L 126.785156 148.441406 L 134.84375 140.402344 L 153.546875 140.402344 L 153.546875 138.960938 L 134.246094 138.960938 L 126.1875 147.003906 L 84.96875 147.003906 C 84.667969 145.847656 83.617188 144.996094 82.367188 144.996094 C 80.882812 144.996094 79.679688 146.195312 79.679688 147.675781 C 79.679688 149.15625 80.882812 150.355469 82.367188 150.355469 Z M 156.65625 186.300781 L 150.644531 192.300781 L 136.003906 192.300781 L 128.429688 184.742188 L 125.371094 184.742188 C 124.832031 183.179688 123.34375 182.058594 121.59375 182.058594 C 119.386719 182.058594 117.597656 183.84375 117.597656 186.046875 C 117.597656 188.25 119.386719 190.035156 121.59375 190.035156 C 123.421875 190.035156 124.960938 188.8125 125.4375 187.140625 L 127.433594 187.140625 L 135.007812 194.703125 L 151.640625 194.703125 L 157.652344 188.703125 L 180.503906 188.703125 L 171.957031 186.300781 Z M 292.996094 170.109375 C 291.78125 170.109375 290.753906 170.914062 290.421875 172.019531 L 248.578125 172.019531 L 240.519531 180.0625 L 221.816406 180.0625 L 221.816406 181.5 L 241.117188 181.5 L 249.175781 173.460938 L 290.394531 173.460938 C 290.695312 174.617188 291.746094 175.46875 292.996094 175.46875 C 294.480469 175.46875 295.679688 174.269531 295.679688 172.789062 C 295.679688 171.308594 294.480469 170.109375 292.996094 170.109375 Z M 253.769531 182.058594 C 252.019531 182.058594 250.535156 183.179688 249.992188 184.742188 L 246.933594 184.742188 L 239.359375 192.300781 L 224.71875 192.300781 L 218.707031 186.300781 L 203.40625 186.300781 L 194.621094 188.703125 L 217.710938 188.703125 L 223.722656 194.703125 L 240.355469 194.703125 L 247.929688 187.140625 L 249.925781 187.140625 C 250.402344 188.8125 251.941406 190.035156 253.769531 190.035156 C 255.976562 190.035156 257.765625 188.25 257.765625 186.046875 C 257.765625 183.84375 255.976562 182.058594 253.769531 182.058594 Z M 134.246094 181.5 L 153.546875 181.5 L 153.546875 180.0625 L 134.84375 180.0625 L 126.785156 172.019531 L 84.941406 172.019531 C 84.609375 170.914062 83.582031 170.109375 82.367188 170.109375 C 80.882812 170.109375 79.679688 171.308594 79.679688 172.789062 C 79.679688 174.269531 80.882812 175.46875 82.367188 175.46875 C 83.617188 175.46875 84.667969 174.617188 84.96875 173.460938 L 126.1875 173.460938 Z M 212.234375 175.445312 L 218.25 169.445312 L 225.320312 169.445312 C 225.8125 171.0625 227.316406 172.242188 229.097656 172.242188 C 231.277344 172.242188 233.046875 170.480469 233.046875 168.304688 C 233.046875 166.132812 231.277344 164.367188 229.097656 164.367188 C 227.363281 164.367188 225.886719 165.488281 225.363281 167.046875 L 217.253906 167.046875 L 211.238281 173.046875 L 210.4375 173.046875 C 209.96875 173.875 209.453125 174.675781 208.898438 175.445312 Z M 211.238281 147.417969 L 217.253906 153.417969 L 225.363281 153.417969 C 225.886719 154.972656 227.363281 156.09375 229.097656 156.09375 C 231.277344 156.09375 233.046875 154.332031 233.046875 152.160156 C 233.046875 149.984375 231.277344 148.21875 229.097656 148.21875 C 227.316406 148.21875 225.8125 149.398438 225.320312 151.019531 L 218.25 151.019531 L 212.234375 145.019531 L 208.898438 145.019531 C 209.453125 145.789062 209.96875 146.589844 210.4375 147.417969 Z M 241.117188 138.960938 L 221.816406 138.960938 L 221.816406 140.402344 L 240.519531 140.402344 L 248.578125 148.441406 L 290.421875 148.441406 C 290.753906 149.546875 291.78125 150.355469 292.996094 150.355469 C 294.480469 150.355469 295.679688 149.15625 295.679688 147.675781 C 295.679688 146.195312 294.480469 144.996094 292.996094 144.996094 C 291.746094 144.996094 290.695312 145.847656 290.394531 147.003906 L 249.175781 147.003906 Z M 146.261719 156.09375 C 148 156.09375 149.476562 154.972656 150 153.417969 L 158.109375 153.417969 L 164.125 147.417969 L 164.925781 147.417969 C 165.394531 146.589844 165.910156 145.789062 166.464844 145.019531 L 163.128906 145.019531 L 157.113281 151.019531 L 150.039062 151.019531 C 149.550781 149.398438 148.046875 148.21875 146.261719 148.21875 C 144.085938 148.21875 142.316406 149.984375 142.316406 152.160156 C 142.316406 154.332031 144.085938 156.09375 146.261719 156.09375 Z M 171.957031 137.417969 L 161.714844 137.417969 L 154.136719 144.976562 L 141.507812 144.976562 L 131.042969 155.417969 L 100.550781 155.417969 C 100.214844 154.320312 99.191406 153.523438 97.980469 153.523438 C 96.5 153.523438 95.296875 154.722656 95.296875 156.203125 C 95.296875 157.683594 96.5 158.882812 97.980469 158.882812 C 99.238281 158.882812 100.292969 158.023438 100.585938 156.859375 L 131.640625 156.859375 L 142.105469 146.417969 L 154.734375 146.417969 L 162.3125 138.855469 L 171.957031 138.855469 Z M 131.640625 163.605469 L 100.585938 163.605469 C 100.292969 162.441406 99.238281 161.582031 97.980469 161.582031 C 96.5 161.582031 95.296875 162.78125 95.296875 164.261719 C 95.296875 165.738281 96.5 166.941406 97.980469 166.941406 C 99.191406 166.941406 100.214844 166.140625 100.550781 165.042969 L 131.042969 165.042969 L 141.507812 175.484375 L 154.136719 175.484375 L 161.714844 183.046875 L 171.957031 183.046875 L 171.957031 181.605469 L 162.3125 181.605469 L 154.734375 174.046875 L 142.105469 174.046875 Z M 203.40625 183.046875 L 213.648438 183.046875 L 221.226562 175.484375 L 233.855469 175.484375 L 244.320312 165.042969 L 274.8125 165.042969 C 275.148438 166.140625 276.171875 166.941406 277.378906 166.941406 C 278.863281 166.941406 280.066406 165.738281 280.066406 164.261719 C 280.066406 162.78125 278.863281 161.582031 277.378906 161.582031 C 276.125 161.582031 275.070312 162.441406 274.777344 163.605469 L 243.722656 163.605469 L 233.257812 174.046875 L 220.628906 174.046875 L 213.050781 181.605469 L 203.40625 181.605469 Z M 146.261719 172.242188 C 148.046875 172.242188 149.550781 171.0625 150.039062 169.445312 L 157.113281 169.445312 L 163.128906 175.445312 L 166.464844 175.445312 C 165.910156 174.675781 165.394531 173.875 164.925781 173.046875 L 164.125 173.046875 L 158.109375 167.046875 L 150 167.046875 C 149.476562 165.488281 148 164.367188 146.261719 164.367188 C 144.085938 164.367188 142.316406 166.132812 142.316406 168.304688 C 142.316406 170.480469 144.085938 172.242188 146.261719 172.242188 Z M 146.261719 172.242188" clip-rule="nonzero"/></clipPath><clipPath id="48e809f9fa"><path d="M 277.378906 153.523438 C 276.171875 153.523438 275.148438 154.320312 274.8125 155.417969 L 244.320312 155.417969 L 233.855469 144.976562 L 221.226562 144.976562 L 213.648438 137.417969 L 203.40625 137.417969 L 203.40625 138.855469 L 213.050781 138.855469 L 220.628906 146.417969 L 233.257812 146.417969 L 243.722656 156.859375 L 274.777344 156.859375 C 275.070312 158.023438 276.121094 158.882812 277.378906 158.882812 C 278.863281 158.882812 280.066406 157.683594 280.066406 156.203125 C 280.066406 154.722656 278.863281 153.523438 277.378906 153.523438 Z M 121.59375 138.40625 C 123.34375 138.40625 124.832031 137.285156 125.371094 135.722656 L 128.429688 135.722656 L 136.003906 128.164062 L 150.644531 128.164062 L 156.65625 134.164062 L 171.957031 134.164062 L 176.671875 131.761719 L 157.652344 131.761719 L 151.640625 125.761719 L 135.007812 125.761719 L 127.433594 133.320312 L 125.4375 133.320312 C 124.960938 131.652344 123.421875 130.429688 121.59375 130.429688 C 119.386719 130.429688 117.597656 132.214844 117.597656 134.417969 C 117.597656 136.621094 119.386719 138.40625 121.59375 138.40625 Z M 218.703125 134.164062 L 224.71875 128.164062 L 239.359375 128.164062 L 246.933594 135.722656 L 249.992188 135.722656 C 250.53125 137.285156 252.019531 138.40625 253.769531 138.40625 C 255.976562 138.40625 257.761719 136.621094 257.761719 134.417969 C 257.761719 132.214844 255.976562 130.429688 253.769531 130.429688 C 251.941406 130.429688 250.402344 131.652344 249.925781 133.320312 L 247.929688 133.320312 L 240.355469 125.761719 L 223.722656 125.761719 L 217.710938 131.761719 L 196.65625 131.761719 L 203.40625 134.164062 Z M 82.367188 150.355469 C 83.582031 150.355469 84.609375 149.546875 84.941406 148.441406 L 126.785156 148.441406 L 134.84375 140.402344 L 153.546875 140.402344 L 153.546875 138.960938 L 134.246094 138.960938 L 126.1875 147.003906 L 84.96875 147.003906 C 84.667969 145.847656 83.617188 144.996094 82.367188 144.996094 C 80.882812 144.996094 79.679688 146.195312 79.679688 147.675781 C 79.679688 149.15625 80.882812 150.355469 82.367188 150.355469 Z M 156.65625 186.300781 L 150.644531 192.304688 L 136.003906 192.304688 L 128.429688 184.742188 L 125.371094 184.742188 C 124.832031 183.179688 123.34375 182.058594 121.59375 182.058594 C 119.386719 182.058594 117.597656 183.84375 117.597656 186.046875 C 117.597656 188.25 119.386719 190.035156 121.59375 190.035156 C 123.421875 190.035156 124.960938 188.8125 125.4375 187.140625 L 127.433594 187.140625 L 135.007812 194.703125 L 151.640625 194.703125 L 157.652344 188.703125 L 180.503906 188.703125 L 171.957031 186.300781 Z M 292.996094 170.109375 C 291.777344 170.109375 290.753906 170.914062 290.421875 172.019531 L 248.578125 172.019531 L 240.519531 180.0625 L 221.816406 180.0625 L 221.816406 181.5 L 241.117188 181.5 L 249.175781 173.460938 L 290.394531 173.460938 C 290.695312 174.617188 291.742188 175.46875 292.996094 175.46875 C 294.476562 175.46875 295.679688 174.269531 295.679688 172.789062 C 295.679688 171.308594 294.476562 170.109375 292.996094 170.109375 Z M 253.769531 182.058594 C 252.019531 182.058594 250.53125 183.179688 249.992188 184.742188 L 246.933594 184.742188 L 239.359375 192.304688 L 224.71875 192.304688 L 218.703125 186.300781 L 203.40625 186.300781 L 194.621094 188.703125 L 217.710938 188.703125 L 223.722656 194.703125 L 240.355469 194.703125 L 247.929688 187.140625 L 249.925781 187.140625 C 250.402344 188.8125 251.941406 190.035156 253.769531 190.035156 C 255.976562 190.035156 257.761719 188.25 257.761719 186.046875 C 257.761719 183.84375 255.976562 182.058594 253.769531 182.058594 Z M 134.246094 181.5 L 153.546875 181.5 L 153.546875 180.0625 L 134.84375 180.0625 L 126.785156 172.019531 L 84.941406 172.019531 C 84.609375 170.914062 83.582031 170.109375 82.367188 170.109375 C 80.882812 170.109375 79.679688 171.308594 79.679688 172.789062 C 79.679688 174.269531 80.882812 175.46875 82.367188 175.46875 C 83.617188 175.46875 84.667969 174.617188 84.96875 173.460938 L 126.1875 173.460938 Z M 212.234375 175.445312 L 218.25 169.445312 L 225.320312 169.445312 C 225.8125 171.0625 227.316406 172.242188 229.101562 172.242188 C 231.277344 172.242188 233.046875 170.480469 233.046875 168.304688 C 233.046875 166.132812 231.277344 164.367188 229.101562 164.367188 C 227.363281 164.367188 225.886719 165.488281 225.363281 167.046875 L 217.253906 167.046875 L 211.238281 173.046875 L 210.4375 173.046875 C 209.96875 173.875 209.453125 174.675781 208.898438 175.445312 Z M 211.238281 147.417969 L 217.253906 153.417969 L 225.363281 153.417969 C 225.886719 154.972656 227.363281 156.09375 229.101562 156.09375 C 231.277344 156.09375 233.046875 154.332031 233.046875 152.160156 C 233.046875 149.984375 231.277344 148.222656 229.101562 148.222656 C 227.316406 148.222656 225.8125 149.398438 225.320312 151.019531 L 218.25 151.019531 L 212.234375 145.019531 L 208.898438 145.019531 C 209.453125 145.789062 209.96875 146.589844 210.4375 147.417969 Z M 241.117188 138.960938 L 221.816406 138.960938 L 221.816406 140.402344 L 240.519531 140.402344 L 248.578125 148.441406 L 290.421875 148.441406 C 290.753906 149.546875 291.777344 150.355469 292.996094 150.355469 C 294.476562 150.355469 295.679688 149.15625 295.679688 147.675781 C 295.679688 146.195312 294.476562 144.996094 292.996094 144.996094 C 291.742188 144.996094 290.695312 145.847656 290.394531 147.003906 L 249.175781 147.003906 Z M 146.261719 156.09375 C 148 156.09375 149.472656 154.972656 150 153.417969 L 158.109375 153.417969 L 164.125 147.417969 L 164.925781 147.417969 C 165.394531 146.589844 165.910156 145.789062 166.464844 145.019531 L 163.128906 145.019531 L 157.113281 151.019531 L 150.039062 151.019531 C 149.550781 149.398438 148.046875 148.222656 146.261719 148.222656 C 144.085938 148.222656 142.316406 149.984375 142.316406 152.160156 C 142.316406 154.332031 144.085938 156.09375 146.261719 156.09375 Z M 171.957031 137.417969 L 161.714844 137.417969 L 154.136719 144.976562 L 141.507812 144.976562 L 131.042969 155.417969 L 100.550781 155.417969 C 100.214844 154.320312 99.191406 153.523438 97.980469 153.523438 C 96.5 153.523438 95.296875 154.722656 95.296875 156.203125 C 95.296875 157.683594 96.5 158.882812 97.980469 158.882812 C 99.238281 158.882812 100.292969 158.023438 100.585938 156.859375 L 131.640625 156.859375 L 142.105469 146.417969 L 154.734375 146.417969 L 162.3125 138.855469 L 171.957031 138.855469 Z M 131.640625 163.605469 L 100.585938 163.605469 C 100.292969 162.441406 99.238281 161.582031 97.980469 161.582031 C 96.5 161.582031 95.296875 162.78125 95.296875 164.261719 C 95.296875 165.738281 96.5 166.941406 97.980469 166.941406 C 99.191406 166.941406 100.214844 166.140625 100.550781 165.042969 L 131.042969 165.042969 L 141.507812 175.484375 L 154.136719 175.484375 L 161.714844 183.046875 L 171.957031 183.046875 L 171.957031 181.605469 L 162.3125 181.605469 L 154.734375 174.046875 L 142.105469 174.046875 Z M 203.40625 183.046875 L 213.648438 183.046875 L 221.226562 175.484375 L 233.855469 175.484375 L 244.320312 165.042969 L 274.8125 165.042969 C 275.148438 166.140625 276.171875 166.941406 277.378906 166.941406 C 278.863281 166.941406 280.066406 165.738281 280.066406 164.261719 C 280.066406 162.78125 278.863281 161.582031 277.378906 161.582031 C 276.121094 161.582031 275.070312 162.441406 274.777344 163.605469 L 243.722656 163.605469 L 233.257812 174.046875 L 220.628906 174.046875 L 213.050781 181.605469 L 203.40625 181.605469 Z M 146.261719 172.242188 C 148.046875 172.242188 149.550781 171.0625 150.039062 169.445312 L 157.113281 169.445312 L 163.128906 175.445312 L 166.464844 175.445312 C 165.910156 174.675781 165.394531 173.875 164.925781 173.046875 L 164.125 173.046875 L 158.109375 167.046875 L 150 167.046875 C 149.472656 165.488281 148 164.367188 146.261719 164.367188 C 144.085938 164.367188 142.316406 166.132812 142.316406 168.304688 C 142.316406 170.480469 144.085938 172.242188 146.261719 172.242188" clip-rule="nonzero"/></clipPath><linearGradient id="5aa44d0e07" x1="0" x2="1" y1="0" y2="0" gradientTransform="matrix(215.999975, 0, 0, 215.526885, 79.681468, 160.231446)" gradientUnits="userSpaceOnUse"><stop offset="0" stop-color="#51ADE5" stop-opacity="1"/><stop offset=".008" stop-color="#51ADE5" stop-opacity="1"/><stop offset=".016" stop-color="#50ACE4" stop-opacity="1"/><stop offset=".02" stop-color="#4FABE3" stop-opacity="1"/><stop offset=".023" stop-color="#4FAAE3" stop-opacity="1"/><stop offset=".027" stop-color="#4FA9E2" stop-opacity="1"/><stop offset=".031" stop-color="#4FA8E2" stop-opacity="1"/><stop offset=".035" stop-color="#4FA8E1" stop-opacity="1"/><stop offset=".039" stop-color="#4EA7E1" stop-opacity="1"/><stop offset=".047" stop-color="#4EA7E0" stop-opacity="1"/><stop offset=".055" stop-color="#4EA6E0" stop-opacity="1"/><stop offset=".063" stop-color="#4EA5E0" stop-opacity="1"/><stop offset=".066" stop-color="#4DA3DF" stop-opacity="1"/><stop offset=".07" stop-color="#4DA3DE" stop-opacity="1"/><stop offset=".078" stop-color="#4CA2DE" stop-opacity="1"/><stop offset=".082" stop-color="#4CA1DE" stop-opacity="1"/><stop offset=".086" stop-color="#4CA0DD" stop-opacity="1"/><stop offset=".094" stop-color="#4CA0DD" stop-opacity="1"/><stop offset=".098" stop-color="#4B9FDC" stop-opacity="1"/><stop offset=".102" stop-color="#4B9EDC" stop-opacity="1"/><stop offset=".105" stop-color="#4B9EDC" stop-opacity="1"/><stop offset=".109" stop-color="#4B9DDB" stop-opacity="1"/><stop offset=".113" stop-color="#4B9DDB" stop-opacity="1"/><stop offset=".117" stop-color="#4B9CDA" stop-opacity="1"/><stop offset=".121" stop-color="#4A9CDA" stop-opacity="1"/><stop offset=".125" stop-color="#4A9BD9" stop-opacity="1"/><stop offset=".133" stop-color="#4A9BD9" stop-opacity="1"/><stop offset=".137" stop-color="#4A9AD8" stop-opacity="1"/><stop offset=".141" stop-color="#4A99D8" stop-opacity="1"/><stop offset=".145" stop-color="#4998D7" stop-opacity="1"/><stop offset=".148" stop-color="#4998D7" stop-opacity="1"/><stop offset=".152" stop-color="#4897D7" stop-opacity="1"/><stop offset=".156" stop-color="#4896D7" stop-opacity="1"/><stop offset=".16" stop-color="#4895D6" stop-opacity="1"/><stop offset=".164" stop-color="#4895D6" stop-opacity="1"/><stop offset=".172" stop-color="#4894D5" stop-opacity="1"/><stop offset=".18" stop-color="#4893D5" stop-opacity="1"/><stop offset=".184" stop-color="#4793D4" stop-opacity="1"/><stop offset=".188" stop-color="#4792D4" stop-opacity="1"/><stop offset=".191" stop-color="#4792D3" stop-opacity="1"/><stop offset=".195" stop-color="#4791D3" stop-opacity="1"/><stop offset=".199" stop-color="#4791D3" stop-opacity="1"/><stop offset=".203" stop-color="#4790D3" stop-opacity="1"/><stop offset=".207" stop-color="#4790D2" stop-opacity="1"/><stop offset=".211" stop-color="#468FD2" stop-opacity="1"/><stop offset=".215" stop-color="#468FD2" stop-opacity="1"/><stop offset=".219" stop-color="#468ED1" stop-opacity="1"/><stop offset=".223" stop-color="#468ED1" stop-opacity="1"/><stop offset=".227" stop-color="#468DD0" stop-opacity="1"/><stop offset=".23" stop-color="#468CD0" stop-opacity="1"/><stop offset=".234" stop-color="#458CD0" stop-opacity="1"/><stop offset=".242" stop-color="#458BD0" stop-opacity="1"/><stop offset=".25" stop-color="#458ACF" stop-opacity="1"/><stop offset=".254" stop-color="#4489CF" stop-opacity="1"/><stop offset=".258" stop-color="#4489CE" stop-opacity="1"/><stop offset=".262" stop-color="#4488CE" stop-opacity="1"/><stop offset=".266" stop-color="#4488CD" stop-opacity="1"/><stop offset=".27" stop-color="#4487CD" stop-opacity="1"/><stop offset=".273" stop-color="#4487CD" stop-opacity="1"/><stop offset=".277" stop-color="#4486CC" stop-opacity="1"/><stop offset=".281" stop-color="#4385CC" stop-opacity="1"/><stop offset=".285" stop-color="#4385CB" stop-opacity="1"/><stop offset=".289" stop-color="#4384CB" stop-opacity="1"/><stop offset=".293" stop-color="#4384CA" stop-opacity="1"/><stop offset=".297" stop-color="#4283CA" stop-opacity="1"/><stop offset=".305" stop-color="#4283CA" stop-opacity="1"/><stop offset=".309" stop-color="#4282C9" stop-opacity="1"/><stop offset=".313" stop-color="#4181C9" stop-opacity="1"/><stop offset=".316" stop-color="#4181C8" stop-opacity="1"/><stop offset=".32" stop-color="#4180C8" stop-opacity="1"/><stop offset=".328" stop-color="#4180C8" stop-opacity="1"/><stop offset=".332" stop-color="#417FC7" stop-opacity="1"/><stop offset=".336" stop-color="#417FC7" stop-opacity="1"/><stop offset=".34" stop-color="#417EC7" stop-opacity="1"/><stop offset=".344" stop-color="#407EC7" stop-opacity="1"/><stop offset=".348" stop-color="#407DC6" stop-opacity="1"/><stop offset=".352" stop-color="#407DC6" stop-opacity="1"/><stop offset=".355" stop-color="#407CC5" stop-opacity="1"/><stop offset=".359" stop-color="#407CC5" stop-opacity="1"/><stop offset=".363" stop-color="#407BC5" stop-opacity="1"/><stop offset=".367" stop-color="#407AC4" stop-opacity="1"/><stop offset=".375" stop-color="#3F7AC4" stop-opacity="1"/><stop offset=".379" stop-color="#3E79C4" stop-opacity="1"/><stop offset=".383" stop-color="#3E79C3" stop-opacity="1"/><stop offset=".387" stop-color="#3E79C3" stop-opacity="1"/><stop offset=".391" stop-color="#3E78C2" stop-opacity="1"/><stop offset=".395" stop-color="#3E78C2" stop-opacity="1"/><stop offset=".398" stop-color="#3E77C2" stop-opacity="1"/><stop offset=".402" stop-color="#3E76C2" stop-opacity="1"/><stop offset=".406" stop-color="#3E76C1" stop-opacity="1"/><stop offset=".414" stop-color="#3E76C1" stop-opacity="1"/><stop offset=".418" stop-color="#3D75C1" stop-opacity="1"/><stop offset=".422" stop-color="#3D74C0" stop-opacity="1"/><stop offset=".426" stop-color="#3D74C0" stop-opacity="1"/><stop offset=".43" stop-color="#3D73BF" stop-opacity="1"/><stop offset=".434" stop-color="#3D72BF" stop-opacity="1"/><stop offset=".438" stop-color="#3D72BE" stop-opacity="1"/><stop offset=".441" stop-color="#3D71BE" stop-opacity="1"/><stop offset=".445" stop-color="#3D71BE" stop-opacity="1"/><stop offset=".453" stop-color="#3C70BD" stop-opacity="1"/><stop offset=".457" stop-color="#3B6FBC" stop-opacity="1"/><stop offset=".461" stop-color="#3B6FBC" stop-opacity="1"/><stop offset=".469" stop-color="#3B6EBC" stop-opacity="1"/><stop offset=".477" stop-color="#3B6DBB" stop-opacity="1"/><stop offset=".484" stop-color="#3B6DBB" stop-opacity="1"/><stop offset=".488" stop-color="#3B6CBA" stop-opacity="1"/><stop offset=".492" stop-color="#3B6BBA" stop-opacity="1"/><stop offset=".496" stop-color="#3B6BB9" stop-opacity="1"/><stop offset=".5" stop-color="#3B6AB9" stop-opacity="1"/><stop offset=".504" stop-color="#3A6AB9" stop-opacity="1"/><stop offset=".508" stop-color="#3A69B9" stop-opacity="1"/><stop offset=".516" stop-color="#3A69B8" stop-opacity="1"/><stop offset=".52" stop-color="#3A68B8" stop-opacity="1"/><stop offset=".523" stop-color="#3968B7" stop-opacity="1"/><stop offset=".531" stop-color="#3967B7" stop-opacity="1"/><stop offset=".539" stop-color="#3966B7" stop-opacity="1"/><stop offset=".543" stop-color="#3965B6" stop-opacity="1"/><stop offset=".547" stop-color="#3965B5" stop-opacity="1"/><stop offset=".551" stop-color="#3964B5" stop-opacity="1"/><stop offset=".555" stop-color="#3864B5" stop-opacity="1"/><stop offset=".559" stop-color="#3863B5" stop-opacity="1"/><stop offset=".563" stop-color="#3863B4" stop-opacity="1"/><stop offset=".566" stop-color="#3862B4" stop-opacity="1"/><stop offset=".57" stop-color="#3862B4" stop-opacity="1"/><stop offset=".574" stop-color="#3861B3" stop-opacity="1"/><stop offset=".578" stop-color="#3861B3" stop-opacity="1"/><stop offset=".582" stop-color="#3860B3" stop-opacity="1"/><stop offset=".586" stop-color="#3860B2" stop-opacity="1"/><stop offset=".59" stop-color="#3860B2" stop-opacity="1"/><stop offset=".594" stop-color="#3760B2" stop-opacity="1"/><stop offset=".598" stop-color="#375FB1" stop-opacity="1"/><stop offset=".602" stop-color="#365FB1" stop-opacity="1"/><stop offset=".605" stop-color="#365FB0" stop-opacity="1"/><stop offset=".609" stop-color="#365EB0" stop-opacity="1"/><stop offset=".613" stop-color="#365EAF" stop-opacity="1"/><stop offset=".617" stop-color="#365DAF" stop-opacity="1"/><stop offset=".625" stop-color="#365DAF" stop-opacity="1"/><stop offset=".633" stop-color="#365CAE" stop-opacity="1"/><stop offset=".641" stop-color="#365BAE" stop-opacity="1"/><stop offset=".645" stop-color="#365AAD" stop-opacity="1"/><stop offset=".648" stop-color="#355AAD" stop-opacity="1"/><stop offset=".656" stop-color="#3559AD" stop-opacity="1"/><stop offset=".664" stop-color="#3558AC" stop-opacity="1"/><stop offset=".672" stop-color="#3557AC" stop-opacity="1"/><stop offset=".676" stop-color="#3557AC" stop-opacity="1"/><stop offset=".68" stop-color="#3456AB" stop-opacity="1"/><stop offset=".684" stop-color="#3456AB" stop-opacity="1"/><stop offset=".688" stop-color="#3456AA" stop-opacity="1"/><stop offset=".691" stop-color="#3455AA" stop-opacity="1"/><stop offset=".695" stop-color="#3455A9" stop-opacity="1"/><stop offset=".703" stop-color="#3454A9" stop-opacity="1"/><stop offset=".711" stop-color="#3353A9" stop-opacity="1"/><stop offset=".719" stop-color="#3353A8" stop-opacity="1"/><stop offset=".723" stop-color="#3352A8" stop-opacity="1"/><stop offset=".727" stop-color="#3351A7" stop-opacity="1"/><stop offset=".73" stop-color="#3351A7" stop-opacity="1"/><stop offset=".734" stop-color="#3351A6" stop-opacity="1"/><stop offset=".742" stop-color="#3251A6" stop-opacity="1"/><stop offset=".75" stop-color="#3250A5" stop-opacity="1"/><stop offset=".758" stop-color="#324FA4" stop-opacity="1"/><stop offset=".766" stop-color="#324EA4" stop-opacity="1"/><stop offset=".77" stop-color="#324DA3" stop-opacity="1"/><stop offset=".773" stop-color="#324CA3" stop-opacity="1"/><stop offset=".781" stop-color="#314CA3" stop-opacity="1"/><stop offset=".789" stop-color="#314BA2" stop-opacity="1"/><stop offset=".797" stop-color="#314AA2" stop-opacity="1"/><stop offset=".801" stop-color="#314AA1" stop-opacity="1"/><stop offset=".805" stop-color="#314AA1" stop-opacity="1"/><stop offset=".809" stop-color="#3149A0" stop-opacity="1"/><stop offset=".813" stop-color="#3149A0" stop-opacity="1"/><stop offset=".816" stop-color="#3048A0" stop-opacity="1"/><stop offset=".82" stop-color="#3048A0" stop-opacity="1"/><stop offset=".828" stop-color="#30479F" stop-opacity="1"/><stop offset=".844" stop-color="#30479F" stop-opacity="1"/><stop offset=".848" stop-color="#2F469E" stop-opacity="1"/><stop offset=".852" stop-color="#2F459D" stop-opacity="1"/><stop offset=".855" stop-color="#2F459D" stop-opacity="1"/><stop offset=".859" stop-color="#2F449D" stop-opacity="1"/><stop offset=".867" stop-color="#2F449D" stop-opacity="1"/><stop offset=".875" stop-color="#2F449C" stop-opacity="1"/><stop offset=".879" stop-color="#2F439C" stop-opacity="1"/><stop offset=".883" stop-color="#2F429B" stop-opacity="1"/><stop offset=".887" stop-color="#2F429B" stop-opacity="1"/><stop offset=".891" stop-color="#2F419A" stop-opacity="1"/><stop offset=".895" stop-color="#2E419A" stop-opacity="1"/><stop offset=".898" stop-color="#2E409A" stop-opacity="1"/><stop offset=".906" stop-color="#2E4099" stop-opacity="1"/><stop offset=".91" stop-color="#2E3F98" stop-opacity="1"/><stop offset=".914" stop-color="#2E3F98" stop-opacity="1"/><stop offset=".922" stop-color="#2E3E98" stop-opacity="1"/><stop offset=".93" stop-color="#2E3E98" stop-opacity="1"/><stop offset=".934" stop-color="#2D3D97" stop-opacity="1"/><stop offset=".938" stop-color="#2D3D97" stop-opacity="1"/><stop offset=".941" stop-color="#2D3C96" stop-opacity="1"/><stop offset=".945" stop-color="#2D3C96" stop-opacity="1"/><stop offset=".949" stop-color="#2D3B95" stop-opacity="1"/><stop offset=".953" stop-color="#2D3B95" stop-opacity="1"/><stop offset=".961" stop-color="#2D3B95" stop-opacity="1"/><stop offset=".965" stop-color="#2D3A94" stop-opacity="1"/><stop offset=".969" stop-color="#2C3A94" stop-opacity="1"/><stop offset=".977" stop-color="#2C3A94" stop-opacity="1"/><stop offset=".98" stop-color="#2C3993" stop-opacity="1"/><stop offset=".984" stop-color="#2C3993" stop-opacity="1"/><stop offset=".988" stop-color="#2C3993" stop-opacity="1"/><stop offset=".992" stop-color="#2C3893" stop-opacity="1"/><stop offset="1" stop-color="#2C3892" stop-opacity="1"/></linearGradient><clipPath id="6e568285fc"><path d="M 156.523438 129.144531 L 218.839844 129.144531 L 218.839844 191.320312 L 156.523438 191.320312 Z M 156.523438 129.144531" clip-rule="nonzero"/></clipPath><clipPath id="e82cdd6ee8"><path d="M 187.679688 183.195312 C 174.96875 183.195312 164.667969 172.914062 164.667969 160.230469 C 164.667969 147.546875 174.96875 137.265625 187.679688 137.265625 C 200.390625 137.265625 210.695312 147.546875 210.695312 160.230469 C 210.695312 172.914062 200.390625 183.195312 187.679688 183.195312 Z M 187.679688 129.144531 C 170.472656 129.144531 156.523438 143.0625 156.523438 160.230469 C 156.523438 177.402344 170.472656 191.320312 187.679688 191.320312 C 204.890625 191.320312 218.839844 177.402344 218.839844 160.230469 C 218.839844 143.0625 204.890625 129.144531 187.679688 129.144531 Z M 187.679688 129.144531" clip-rule="nonzero"/></clipPath><clipPath id="9e48536d01"><path d="M 187.679688 183.195312 C 174.96875 183.195312 164.667969 172.914062 164.667969 160.230469 C 164.667969 147.546875 174.96875 137.265625 187.679688 137.265625 C 200.390625 137.265625 210.695312 147.546875 210.695312 160.230469 C 210.695312 172.914062 200.390625 183.195312 187.679688 183.195312 Z M 187.679688 129.144531 C 170.472656 129.144531 156.523438 143.0625 156.523438 160.230469 C 156.523438 177.402344 170.472656 191.320312 187.679688 191.320312 C 204.890625 191.320312 218.839844 177.402344 218.839844 160.230469 C 218.839844 143.0625 204.890625 129.144531 187.679688 129.144531" clip-rule="nonzero"/></clipPath><linearGradient id="f027d24824" x1="0" x2="1" y1="0" y2="0" gradientTransform="matrix(62.314856, 0, 0, 62.178374, 156.524034, 160.231446)" gradientUnits="userSpaceOnUse"><stop offset="0" stop-color="#51ADE5" stop-opacity="1"/><stop offset=".008" stop-color="#51ADE5" stop-opacity="1"/><stop offset=".016" stop-color="#50ACE4" stop-opacity="1"/><stop offset=".02" stop-color="#4FABE3" stop-opacity="1"/><stop offset=".023" stop-color="#4FAAE3" stop-opacity="1"/><stop offset=".027" stop-color="#4FA9E2" stop-opacity="1"/><stop offset=".031" stop-color="#4FA8E2" stop-opacity="1"/><stop offset=".035" stop-color="#4FA8E1" stop-opacity="1"/><stop offset=".039" stop-color="#4EA7E1" stop-opacity="1"/><stop offset=".047" stop-color="#4EA7E0" stop-opacity="1"/><stop offset=".055" stop-color="#4EA6E0" stop-opacity="1"/><stop offset=".063" stop-color="#4EA5E0" stop-opacity="1"/><stop offset=".066" stop-color="#4DA3DF" stop-opacity="1"/><stop offset=".07" stop-color="#4DA3DE" stop-opacity="1"/><stop offset=".078" stop-color="#4CA2DE" stop-opacity="1"/><stop offset=".082" stop-color="#4CA1DE" stop-opacity="1"/><stop offset=".086" stop-color="#4CA0DD" stop-opacity="1"/><stop offset=".094" stop-color="#4CA0DD" stop-opacity="1"/><stop offset=".098" stop-color="#4B9FDC" stop-opacity="1"/><stop offset=".102" stop-color="#4B9EDC" stop-opacity="1"/><stop offset=".105" stop-color="#4B9EDC" stop-opacity="1"/><stop offset=".109" stop-color="#4B9DDB" stop-opacity="1"/><stop offset=".113" stop-color="#4B9DDB" stop-opacity="1"/><stop offset=".117" stop-color="#4B9CDA" stop-opacity="1"/><stop offset=".121" stop-color="#4A9CDA" stop-opacity="1"/><stop offset=".125" stop-color="#4A9BD9" stop-opacity="1"/><stop offset=".133" stop-color="#4A9BD9" stop-opacity="1"/><stop offset=".137" stop-color="#4A9AD8" stop-opacity="1"/><stop offset=".141" stop-color="#4A99D8" stop-opacity="1"/><stop offset=".145" stop-color="#4998D7" stop-opacity="1"/><stop offset=".148" stop-color="#4998D7" stop-opacity="1"/><stop offset=".152" stop-color="#4897D7" stop-opacity="1"/><stop offset=".156" stop-color="#4896D7" stop-opacity="1"/><stop offset=".16" stop-color="#4895D6" stop-opacity="1"/><stop offset=".164" stop-color="#4895D6" stop-opacity="1"/><stop offset=".172" stop-color="#4894D5" stop-opacity="1"/><stop offset=".18" stop-color="#4893D5" stop-opacity="1"/><stop offset=".184" stop-color="#4793D4" stop-opacity="1"/><stop offset=".188" stop-color="#4792D4" stop-opacity="1"/><stop offset=".191" stop-color="#4792D3" stop-opacity="1"/><stop offset=".195" stop-color="#4791D3" stop-opacity="1"/><stop offset=".199" stop-color="#4791D3" stop-opacity="1"/><stop offset=".203" stop-color="#4790D3" stop-opacity="1"/><stop offset=".207" stop-color="#4790D2" stop-opacity="1"/><stop offset=".211" stop-color="#468FD2" stop-opacity="1"/><stop offset=".215" stop-color="#468FD2" stop-opacity="1"/><stop offset=".219" stop-color="#468ED1" stop-opacity="1"/><stop offset=".223" stop-color="#468ED1" stop-opacity="1"/><stop offset=".227" stop-color="#468DD0" stop-opacity="1"/><stop offset=".23" stop-color="#468CD0" stop-opacity="1"/><stop offset=".234" stop-color="#458CD0" stop-opacity="1"/><stop offset=".242" stop-color="#458BD0" stop-opacity="1"/><stop offset=".25" stop-color="#458ACF" stop-opacity="1"/><stop offset=".254" stop-color="#4489CF" stop-opacity="1"/><stop offset=".258" stop-color="#4489CE" stop-opacity="1"/><stop offset=".262" stop-color="#4488CE" stop-opacity="1"/><stop offset=".266" stop-color="#4488CD" stop-opacity="1"/><stop offset=".27" stop-color="#4487CD" stop-opacity="1"/><stop offset=".273" stop-color="#4487CD" stop-opacity="1"/><stop offset=".277" stop-color="#4486CC" stop-opacity="1"/><stop offset=".281" stop-color="#4385CC" stop-opacity="1"/><stop offset=".285" stop-color="#4385CB" stop-opacity="1"/><stop offset=".289" stop-color="#4384CB" stop-opacity="1"/><stop offset=".293" stop-color="#4384CA" stop-opacity="1"/><stop offset=".297" stop-color="#4283CA" stop-opacity="1"/><stop offset=".305" stop-color="#4283CA" stop-opacity="1"/><stop offset=".309" stop-color="#4282C9" stop-opacity="1"/><stop offset=".313" stop-color="#4181C9" stop-opacity="1"/><stop offset=".316" stop-color="#4181C8" stop-opacity="1"/><stop offset=".32" stop-color="#4180C8" stop-opacity="1"/><stop offset=".328" stop-color="#4180C8" stop-opacity="1"/><stop offset=".332" stop-color="#417FC7" stop-opacity="1"/><stop offset=".336" stop-color="#417FC7" stop-opacity="1"/><stop offset=".34" stop-color="#417EC7" stop-opacity="1"/><stop offset=".344" stop-color="#407EC7" stop-opacity="1"/><stop offset=".348" stop-color="#407DC6" stop-opacity="1"/><stop offset=".352" stop-color="#407DC6" stop-opacity="1"/><stop offset=".355" stop-color="#407CC5" stop-opacity="1"/><stop offset=".359" stop-color="#407CC5" stop-opacity="1"/><stop offset=".363" stop-color="#407BC5" stop-opacity="1"/><stop offset=".367" stop-color="#407AC4" stop-opacity="1"/><stop offset=".375" stop-color="#3F7AC4" stop-opacity="1"/><stop offset=".379" stop-color="#3E79C4" stop-opacity="1"/><stop offset=".383" stop-color="#3E79C3" stop-opacity="1"/><stop offset=".387" stop-color="#3E79C3" stop-opacity="1"/><stop offset=".391" stop-color="#3E78C2" stop-opacity="1"/><stop offset=".395" stop-color="#3E78C2" stop-opacity="1"/><stop offset=".398" stop-color="#3E77C2" stop-opacity="1"/><stop offset=".402" stop-color="#3E76C2" stop-opacity="1"/><stop offset=".406" stop-color="#3E76C1" stop-opacity="1"/><stop offset=".414" stop-color="#3E76C1" stop-opacity="1"/><stop offset=".418" stop-color="#3D75C1" stop-opacity="1"/><stop offset=".422" stop-color="#3D74C0" stop-opacity="1"/><stop offset=".426" stop-color="#3D74C0" stop-opacity="1"/><stop offset=".43" stop-color="#3D73BF" stop-opacity="1"/><stop offset=".434" stop-color="#3D72BF" stop-opacity="1"/><stop offset=".438" stop-color="#3D72BE" stop-opacity="1"/><stop offset=".441" stop-color="#3D71BE" stop-opacity="1"/><stop offset=".445" stop-color="#3D71BE" stop-opacity="1"/><stop offset=".453" stop-color="#3C70BD" stop-opacity="1"/><stop offset=".457" stop-color="#3B6FBC" stop-opacity="1"/><stop offset=".461" stop-color="#3B6FBC" stop-opacity="1"/><stop offset=".469" stop-color="#3B6EBC" stop-opacity="1"/><stop offset=".477" stop-color="#3B6DBB" stop-opacity="1"/><stop offset=".484" stop-color="#3B6DBB" stop-opacity="1"/><stop offset=".488" stop-color="#3B6CBA" stop-opacity="1"/><stop offset=".492" stop-color="#3B6BBA" stop-opacity="1"/><stop offset=".496" stop-color="#3B6BB9" stop-opacity="1"/><stop offset=".5" stop-color="#3B6AB9" stop-opacity="1"/><stop offset=".504" stop-color="#3A6AB9" stop-opacity="1"/><stop offset=".508" stop-color="#3A69B9" stop-opacity="1"/><stop offset=".516" stop-color="#3A69B8" stop-opacity="1"/><stop offset=".52" stop-color="#3A68B8" stop-opacity="1"/><stop offset=".523" stop-color="#3968B7" stop-opacity="1"/><stop offset=".531" stop-color="#3967B7" stop-opacity="1"/><stop offset=".539" stop-color="#3966B7" stop-opacity="1"/><stop offset=".543" stop-color="#3965B6" stop-opacity="1"/><stop offset=".547" stop-color="#3965B5" stop-opacity="1"/><stop offset=".551" stop-color="#3964B5" stop-opacity="1"/><stop offset=".555" stop-color="#3864B5" stop-opacity="1"/><stop offset=".559" stop-color="#3863B5" stop-opacity="1"/><stop offset=".563" stop-color="#3863B4" stop-opacity="1"/><stop offset=".566" stop-color="#3862B4" stop-opacity="1"/><stop offset=".57" stop-color="#3862B4" stop-opacity="1"/><stop offset=".574" stop-color="#3861B3" stop-opacity="1"/><stop offset=".578" stop-color="#3861B3" stop-opacity="1"/><stop offset=".582" stop-color="#3860B3" stop-opacity="1"/><stop offset=".586" stop-color="#3860B2" stop-opacity="1"/><stop offset=".59" stop-color="#3860B2" stop-opacity="1"/><stop offset=".594" stop-color="#3760B2" stop-opacity="1"/><stop offset=".598" stop-color="#375FB1" stop-opacity="1"/><stop offset=".602" stop-color="#365FB1" stop-opacity="1"/><stop offset=".605" stop-color="#365FB0" stop-opacity="1"/><stop offset=".609" stop-color="#365EB0" stop-opacity="1"/><stop offset=".613" stop-color="#365EAF" stop-opacity="1"/><stop offset=".617" stop-color="#365DAF" stop-opacity="1"/><stop offset=".625" stop-color="#365DAF" stop-opacity="1"/><stop offset=".633" stop-color="#365CAE" stop-opacity="1"/><stop offset=".641" stop-color="#365BAE" stop-opacity="1"/><stop offset=".645" stop-color="#365AAD" stop-opacity="1"/><stop offset=".648" stop-color="#355AAD" stop-opacity="1"/><stop offset=".656" stop-color="#3559AD" stop-opacity="1"/><stop offset=".664" stop-color="#3558AC" stop-opacity="1"/><stop offset=".672" stop-color="#3557AC" stop-opacity="1"/><stop offset=".676" stop-color="#3557AC" stop-opacity="1"/><stop offset=".68" stop-color="#3456AB" stop-opacity="1"/><stop offset=".684" stop-color="#3456AB" stop-opacity="1"/><stop offset=".688" stop-color="#3456AA" stop-opacity="1"/><stop offset=".691" stop-color="#3455AA" stop-opacity="1"/><stop offset=".695" stop-color="#3455A9" stop-opacity="1"/><stop offset=".703" stop-color="#3454A9" stop-opacity="1"/><stop offset=".711" stop-color="#3353A9" stop-opacity="1"/><stop offset=".719" stop-color="#3353A8" stop-opacity="1"/><stop offset=".723" stop-color="#3352A8" stop-opacity="1"/><stop offset=".727" stop-color="#3351A7" stop-opacity="1"/><stop offset=".73" stop-color="#3351A7" stop-opacity="1"/><stop offset=".734" stop-color="#3351A6" stop-opacity="1"/><stop offset=".742" stop-color="#3251A6" stop-opacity="1"/><stop offset=".75" stop-color="#3250A5" stop-opacity="1"/><stop offset=".758" stop-color="#324FA4" stop-opacity="1"/><stop offset=".766" stop-color="#324EA4" stop-opacity="1"/><stop offset=".77" stop-color="#324DA3" stop-opacity="1"/><stop offset=".773" stop-color="#324CA3" stop-opacity="1"/><stop offset=".781" stop-color="#314CA3" stop-opacity="1"/><stop offset=".789" stop-color="#314BA2" stop-opacity="1"/><stop offset=".797" stop-color="#314AA2" stop-opacity="1"/><stop offset=".801" stop-color="#314AA1" stop-opacity="1"/><stop offset=".805" stop-color="#314AA1" stop-opacity="1"/><stop offset=".809" stop-color="#3149A0" stop-opacity="1"/><stop offset=".813" stop-color="#3149A0" stop-opacity="1"/><stop offset=".816" stop-color="#3048A0" stop-opacity="1"/><stop offset=".82" stop-color="#3048A0" stop-opacity="1"/><stop offset=".828" stop-color="#30479F" stop-opacity="1"/><stop offset=".844" stop-color="#30479F" stop-opacity="1"/><stop offset=".848" stop-color="#2F469E" stop-opacity="1"/><stop offset=".852" stop-color="#2F459D" stop-opacity="1"/><stop offset=".855" stop-color="#2F459D" stop-opacity="1"/><stop offset=".859" stop-color="#2F449D" stop-opacity="1"/><stop offset=".867" stop-color="#2F449D" stop-opacity="1"/><stop offset=".875" stop-color="#2F449C" stop-opacity="1"/><stop offset=".879" stop-color="#2F439C" stop-opacity="1"/><stop offset=".883" stop-color="#2F429B" stop-opacity="1"/><stop offset=".887" stop-color="#2F429B" stop-opacity="1"/><stop offset=".891" stop-color="#2F419A" stop-opacity="1"/><stop offset=".895" stop-color="#2E419A" stop-opacity="1"/><stop offset=".898" stop-color="#2E409A" stop-opacity="1"/><stop offset=".906" stop-color="#2E4099" stop-opacity="1"/><stop offset=".91" stop-color="#2E3F98" stop-opacity="1"/><stop offset=".914" stop-color="#2E3F98" stop-opacity="1"/><stop offset=".922" stop-color="#2E3E98" stop-opacity="1"/><stop offset=".93" stop-color="#2E3E98" stop-opacity="1"/><stop offset=".934" stop-color="#2D3D97" stop-opacity="1"/><stop offset=".938" stop-color="#2D3D97" stop-opacity="1"/><stop offset=".941" stop-color="#2D3C96" stop-opacity="1"/><stop offset=".945" stop-color="#2D3C96" stop-opacity="1"/><stop offset=".949" stop-color="#2D3B95" stop-opacity="1"/><stop offset=".953" stop-color="#2D3B95" stop-opacity="1"/><stop offset=".961" stop-color="#2D3B95" stop-opacity="1"/><stop offset=".965" stop-color="#2D3A94" stop-opacity="1"/><stop offset=".969" stop-color="#2C3A94" stop-opacity="1"/><stop offset=".977" stop-color="#2C3A94" stop-opacity="1"/><stop offset=".98" stop-color="#2C3993" stop-opacity="1"/><stop offset=".984" stop-color="#2C3993" stop-opacity="1"/><stop offset=".988" stop-color="#2C3993" stop-opacity="1"/><stop offset=".992" stop-color="#2C3893" stop-opacity="1"/><stop offset="1" stop-color="#2C3892" stop-opacity="1"/></linearGradient></defs><g clip-path="url(#7022ee6657)"><g clip-path="url(#a2c6964829)"><g clip-path="url(#48e809f9fa)"><path fill="url(#5aa44d0e07)" fill-rule="nonzero" d="M 79.679688 125.761719 L 79.679688 194.703125 L 295.679688 194.703125 L 295.679688 125.761719 Z M 79.679688 125.761719"/></g></g></g><g clip-path="url(#6e568285fc)"><g clip-path="url(#e82cdd6ee8)"><g clip-path="url(#9e48536d01)"><path fill="url(#f027d24824)" fill-rule="nonzero" d="M 156.523438 129.144531 L 156.523438 191.320312 L 218.839844 191.320312 L 218.839844 129.144531 Z M 156.523438 129.144531"/></g></g></g><g fill="#225aa5" fill-opacity="1"><g><g><path d="M 15.046875 0 L 11.046875 0 L 4.578125 -11.234375 L 4.484375 -11.234375 C 4.617188 -9.253906 4.6875 -7.835938 4.6875 -6.984375 L 4.6875 0 L 1.875 0 L 1.875 -14.859375 L 5.84375 -14.859375 L 12.296875 -3.734375 L 12.375 -3.734375 C 12.269531 -5.660156 12.21875 -7.023438 12.21875 -7.828125 L 12.21875 -14.859375 L 15.046875 -14.859375 Z M 15.046875 0" transform="translate(162.726951, 168.477464)"/></g></g></g><g fill="#225aa5" fill-opacity="1"><g><g><path d="M 6.5 -8.734375 L 9.59375 -14.859375 L 12.984375 -14.859375 L 8.0625 -5.78125 L 8.0625 0 L 4.921875 0 L 4.921875 -5.6875 L 0 -14.859375 L 3.421875 -14.859375 Z M 6.5 -8.734375" transform="translate(179.651743, 168.477464)"/></g></g></g><g fill="#225aa5" fill-opacity="1"><g><g><path d="M 8.15625 0 L 4.578125 -11.65625 L 4.484375 -11.65625 C 4.617188 -9.28125 4.6875 -7.695312 4.6875 -6.90625 L 4.6875 0 L 1.875 0 L 1.875 -14.859375 L 6.15625 -14.859375 L 9.671875 -3.5 L 9.734375 -3.5 L 13.46875 -14.859375 L 17.75 -14.859375 L 17.75 0 L 14.8125 0 L 14.8125 -7.03125 C 14.8125 -7.363281 14.816406 -7.742188 14.828125 -8.171875 C 14.835938 -8.609375 14.882812 -9.765625 14.96875 -11.640625 L 14.875 -11.640625 L 11.046875 0 Z M 8.15625 0" transform="translate(192.642664, 168.477464)"/></g></g></g><g fill="#225aa5" fill-opacity="1"><g><g><path d="M 16.625 0 L 12.203125 0 L 5.0625 -12.421875 L 4.96875 -12.421875 C 5.101562 -10.222656 5.171875 -8.660156 5.171875 -7.734375 L 5.171875 0 L 2.0625 0 L 2.0625 -16.421875 L 6.453125 -16.421875 L 13.59375 -4.125 L 13.671875 -4.125 C 13.554688 -6.257812 13.5 -7.765625 13.5 -8.640625 L 13.5 -16.421875 L 16.625 -16.421875 Z M 16.625 0" transform="translate(100.880682, 231.385883)"/></g></g></g><g fill="#225aa5" fill-opacity="1"><g><g><path d="M 7.171875 -9.65625 L 10.609375 -16.421875 L 14.359375 -16.421875 L 8.90625 -6.390625 L 8.90625 0 L 5.453125 0 L 5.453125 -6.28125 L 0 -16.421875 L 3.78125 -16.421875 Z M 7.171875 -9.65625" transform="translate(119.57306, 231.385883)"/></g></g></g><g fill="#225aa5" fill-opacity="1"><g><g><path d="M 9.015625 0 L 5.0625 -12.875 L 4.96875 -12.875 C 5.101562 -10.257812 5.171875 -8.515625 5.171875 -7.640625 L 5.171875 0 L 2.0625 0 L 2.0625 -16.421875 L 6.8125 -16.421875 L 10.6875 -3.859375 L 10.765625 -3.859375 L 14.875 -16.421875 L 19.625 -16.421875 L 19.625 0 L 16.375 0 L 16.375 -7.765625 C 16.375 -8.140625 16.378906 -8.566406 16.390625 -9.046875 C 16.398438 -9.523438 16.453125 -10.796875 16.546875 -12.859375 L 16.4375 -12.859375 L 12.203125 0 Z M 9.015625 0" transform="translate(133.920723, 231.385883)"/></g></g></g><g fill="#225aa5" fill-opacity="1"><g><g><path d="M 2.0625 0 L 2.0625 -16.421875 L 5.546875 -16.421875 L 5.546875 0 Z M 2.0625 0" transform="translate(161.57197, 231.385883)"/></g></g></g><g fill="#225aa5" fill-opacity="1"><g><g><path d="M 16.625 0 L 12.203125 0 L 5.0625 -12.421875 L 4.96875 -12.421875 C 5.101562 -10.222656 5.171875 -8.660156 5.171875 -7.734375 L 5.171875 0 L 2.0625 0 L 2.0625 -16.421875 L 6.453125 -16.421875 L 13.59375 -4.125 L 13.671875 -4.125 C 13.554688 -6.257812 13.5 -7.765625 13.5 -8.640625 L 13.5 -16.421875 L 16.625 -16.421875 Z M 16.625 0" transform="translate(169.183641, 231.385883)"/></g></g></g><g fill="#225aa5" fill-opacity="1"><g><g><path d="M 8.40625 0 L 4.921875 0 L 4.921875 -13.515625 L 0.453125 -13.515625 L 0.453125 -16.421875 L 12.859375 -16.421875 L 12.859375 -13.515625 L 8.40625 -13.515625 Z M 8.40625 0" transform="translate(187.876019, 231.385883)"/></g></g></g><g fill="#225aa5" fill-opacity="1"><g><g><path d="M 11.515625 0 L 2.0625 0 L 2.0625 -16.421875 L 11.515625 -16.421875 L 11.515625 -13.5625 L 5.546875 -13.5625 L 5.546875 -9.96875 L 11.109375 -9.96875 L 11.109375 -7.109375 L 5.546875 -7.109375 L 5.546875 -2.875 L 11.515625 -2.875 Z M 11.515625 0" transform="translate(201.19083, 231.385883)"/></g></g></g><g fill="#225aa5" fill-opacity="1"><g><g><path d="M 5.546875 -9.125 L 6.671875 -9.125 C 7.773438 -9.125 8.585938 -9.304688 9.109375 -9.671875 C 9.628906 -10.046875 9.890625 -10.625 9.890625 -11.40625 C 9.890625 -12.1875 9.617188 -12.738281 9.078125 -13.0625 C 8.546875 -13.394531 7.722656 -13.5625 6.609375 -13.5625 L 5.546875 -13.5625 Z M 5.546875 -6.296875 L 5.546875 0 L 2.0625 0 L 2.0625 -16.421875 L 6.84375 -16.421875 C 9.082031 -16.421875 10.734375 -16.015625 11.796875 -15.203125 C 12.867188 -14.390625 13.40625 -13.15625 13.40625 -11.5 C 13.40625 -10.53125 13.140625 -9.671875 12.609375 -8.921875 C 12.078125 -8.171875 11.328125 -7.582031 10.359375 -7.15625 C 12.828125 -3.46875 14.4375 -1.082031 15.1875 0 L 11.328125 0 L 7.40625 -6.296875 Z M 5.546875 -6.296875" transform="translate(214.067801, 231.385883)"/></g></g></g><g fill="#225aa5" fill-opacity="1"><g><g><path d="M 16.625 0 L 12.203125 0 L 5.0625 -12.421875 L 4.96875 -12.421875 C 5.101562 -10.222656 5.171875 -8.660156 5.171875 -7.734375 L 5.171875 0 L 2.0625 0 L 2.0625 -16.421875 L 6.453125 -16.421875 L 13.59375 -4.125 L 13.671875 -4.125 C 13.554688 -6.257812 13.5 -7.765625 13.5 -8.640625 L 13.5 -16.421875 L 16.625 -16.421875 Z M 16.625 0" transform="translate(229.246236, 231.385883)"/></g></g></g><g fill="#225aa5" fill-opacity="1"><g><g><path d="M 11.515625 0 L 2.0625 0 L 2.0625 -16.421875 L 11.515625 -16.421875 L 11.515625 -13.5625 L 5.546875 -13.5625 L 5.546875 -9.96875 L 11.109375 -9.96875 L 11.109375 -7.109375 L 5.546875 -7.109375 L 5.546875 -2.875 L 11.515625 -2.875 Z M 11.515625 0" transform="translate(247.938614, 231.385883)"/></g></g></g><g fill="#225aa5" fill-opacity="1"><g><g><path d="M 8.40625 0 L 4.921875 0 L 4.921875 -13.515625 L 0.453125 -13.515625 L 0.453125 -16.421875 L 12.859375 -16.421875 L 12.859375 -13.515625 L 8.40625 -13.515625 Z M 8.40625 0" transform="translate(260.815585, 231.385883)"/></g></g></g><g fill="#225aa5" fill-opacity="1"><g><g><path d="M 3.6875 0 L 2.71875 0 L 2.71875 -7.40625 L 0.109375 -7.40625 L 0.109375 -8.265625 L 6.296875 -8.265625 L 6.296875 -7.40625 L 3.6875 -7.40625 Z M 3.6875 0" transform="translate(142.949395, 246.677197)"/></g></g></g><g fill="#225aa5" fill-opacity="1"><g><g><path d="M 5.75 0 L 1.140625 0 L 1.140625 -8.265625 L 5.75 -8.265625 L 5.75 -7.40625 L 2.09375 -7.40625 L 2.09375 -4.75 L 5.515625 -4.75 L 5.515625 -3.90625 L 2.09375 -3.90625 L 2.09375 -0.859375 L 5.75 -0.859375 Z M 5.75 0" transform="translate(150.768232, 246.677197)"/></g></g></g><g fill="#225aa5" fill-opacity="1"><g><g><path d="M 4.671875 -7.53125 C 3.765625 -7.53125 3.046875 -7.222656 2.515625 -6.609375 C 1.992188 -6.003906 1.734375 -5.175781 1.734375 -4.125 C 1.734375 -3.050781 1.984375 -2.21875 2.484375 -1.625 C 2.992188 -1.03125 3.71875 -0.734375 4.65625 -0.734375 C 5.238281 -0.734375 5.898438 -0.835938 6.640625 -1.046875 L 6.640625 -0.203125 C 6.066406 0.00390625 5.359375 0.109375 4.515625 0.109375 C 3.296875 0.109375 2.351562 -0.257812 1.6875 -1 C 1.03125 -1.738281 0.703125 -2.785156 0.703125 -4.140625 C 0.703125 -4.992188 0.859375 -5.738281 1.171875 -6.375 C 1.492188 -7.019531 1.957031 -7.515625 2.5625 -7.859375 C 3.164062 -8.210938 3.875 -8.390625 4.6875 -8.390625 C 5.550781 -8.390625 6.304688 -8.226562 6.953125 -7.90625 L 6.546875 -7.078125 C 5.921875 -7.378906 5.296875 -7.53125 4.671875 -7.53125 Z M 4.671875 -7.53125" transform="translate(158.620989, 246.677197)"/></g></g></g><g fill="#225aa5" fill-opacity="1"><g><g><path d="M 7.40625 0 L 6.453125 0 L 6.453125 -3.890625 L 2.09375 -3.890625 L 2.09375 0 L 1.140625 0 L 1.140625 -8.265625 L 2.09375 -8.265625 L 2.09375 -4.75 L 6.453125 -4.75 L 6.453125 -8.265625 L 7.40625 -8.265625 Z M 7.40625 0" transform="translate(167.338712, 246.677197)"/></g></g></g><g fill="#225aa5" fill-opacity="1"><g><g><path d="M 7.59375 0 L 6.5 0 L 1.984375 -6.9375 L 1.9375 -6.9375 C 2 -6.125 2.03125 -5.378906 2.03125 -4.703125 L 2.03125 0 L 1.140625 0 L 1.140625 -8.265625 L 2.21875 -8.265625 L 6.734375 -1.359375 L 6.765625 -1.359375 C 6.765625 -1.460938 6.75 -1.789062 6.71875 -2.34375 C 6.695312 -2.894531 6.6875 -3.285156 6.6875 -3.515625 L 6.6875 -8.265625 L 7.59375 -8.265625 Z M 7.59375 0" transform="translate(177.294528, 246.677197)"/></g></g></g><g fill="#225aa5" fill-opacity="1"><g><g><path d="M 8.3125 -4.140625 C 8.3125 -2.816406 7.972656 -1.773438 7.296875 -1.015625 C 6.628906 -0.265625 5.703125 0.109375 4.515625 0.109375 C 3.296875 0.109375 2.351562 -0.257812 1.6875 -1 C 1.03125 -1.75 0.703125 -2.800781 0.703125 -4.15625 C 0.703125 -5.5 1.035156 -6.539062 1.703125 -7.28125 C 2.367188 -8.019531 3.3125 -8.390625 4.53125 -8.390625 C 5.71875 -8.390625 6.644531 -8.015625 7.3125 -7.265625 C 7.976562 -6.515625 8.3125 -5.472656 8.3125 -4.140625 Z M 1.71875 -4.140625 C 1.71875 -3.023438 1.957031 -2.175781 2.4375 -1.59375 C 2.914062 -1.019531 3.609375 -0.734375 4.515625 -0.734375 C 5.429688 -0.734375 6.125 -1.019531 6.59375 -1.59375 C 7.0625 -2.164062 7.296875 -3.015625 7.296875 -4.140625 C 7.296875 -5.253906 7.0625 -6.097656 6.59375 -6.671875 C 6.125 -7.242188 5.4375 -7.53125 4.53125 -7.53125 C 3.613281 -7.53125 2.914062 -7.238281 2.4375 -6.65625 C 1.957031 -6.082031 1.71875 -5.242188 1.71875 -4.140625 Z M 1.71875 -4.140625" transform="translate(187.436905, 246.677197)"/></g></g></g><g fill="#225aa5" fill-opacity="1"><g><g><path d="M 1.140625 0 L 1.140625 -8.265625 L 2.09375 -8.265625 L 2.09375 -0.875 L 5.75 -0.875 L 5.75 0 Z M 1.140625 0" transform="translate(197.867602, 246.677197)"/></g></g></g><g fill="#225aa5" fill-opacity="1"><g><g><path d="M 8.3125 -4.140625 C 8.3125 -2.816406 7.972656 -1.773438 7.296875 -1.015625 C 6.628906 -0.265625 5.703125 0.109375 4.515625 0.109375 C 3.296875 0.109375 2.351562 -0.257812 1.6875 -1 C 1.03125 -1.75 0.703125 -2.800781 0.703125 -4.15625 C 0.703125 -5.5 1.035156 -6.539062 1.703125 -7.28125 C 2.367188 -8.019531 3.3125 -8.390625 4.53125 -8.390625 C 5.71875 -8.390625 6.644531 -8.015625 7.3125 -7.265625 C 7.976562 -6.515625 8.3125 -5.472656 8.3125 -4.140625 Z M 1.71875 -4.140625 C 1.71875 -3.023438 1.957031 -2.175781 2.4375 -1.59375 C 2.914062 -1.019531 3.609375 -0.734375 4.515625 -0.734375 C 5.429688 -0.734375 6.125 -1.019531 6.59375 -1.59375 C 7.0625 -2.164062 7.296875 -3.015625 7.296875 -4.140625 C 7.296875 -5.253906 7.0625 -6.097656 6.59375 -6.671875 C 6.125 -7.242188 5.4375 -7.53125 4.53125 -7.53125 C 3.613281 -7.53125 2.914062 -7.238281 2.4375 -6.65625 C 1.957031 -6.082031 1.71875 -5.242188 1.71875 -4.140625 Z M 1.71875 -4.140625" transform="translate(205.290703, 246.677197)"/></g></g></g><g fill="#225aa5" fill-opacity="1"><g><g><path d="M 4.765625 -4.328125 L 7.578125 -4.328125 L 7.578125 -0.3125 C 7.140625 -0.175781 6.691406 -0.0703125 6.234375 0 C 5.785156 0.0703125 5.265625 0.109375 4.671875 0.109375 C 3.421875 0.109375 2.445312 -0.257812 1.75 -1 C 1.050781 -1.75 0.703125 -2.789062 0.703125 -4.125 C 0.703125 -4.988281 0.875 -5.742188 1.21875 -6.390625 C 1.5625 -7.035156 2.054688 -7.53125 2.703125 -7.875 C 3.359375 -8.21875 4.117188 -8.390625 4.984375 -8.390625 C 5.867188 -8.390625 6.691406 -8.222656 7.453125 -7.890625 L 7.078125 -7.046875 C 6.335938 -7.367188 5.625 -7.53125 4.9375 -7.53125 C 3.925781 -7.53125 3.132812 -7.226562 2.5625 -6.625 C 2 -6.03125 1.71875 -5.195312 1.71875 -4.125 C 1.71875 -3.007812 1.988281 -2.164062 2.53125 -1.59375 C 3.082031 -1.019531 3.882812 -0.734375 4.9375 -0.734375 C 5.507812 -0.734375 6.070312 -0.796875 6.625 -0.921875 L 6.625 -3.46875 L 4.765625 -3.46875 Z M 4.765625 -4.328125" transform="translate(215.721403, 246.677197)"/></g></g></g><g fill="#225aa5" fill-opacity="1"><g><g><path d="M 3.234375 -4.125 L 5.4375 -8.265625 L 6.484375 -8.265625 L 3.71875 -3.203125 L 3.71875 0 L 2.75 0 L 2.75 -3.15625 L 0 -8.265625 L 1.046875 -8.265625 Z M 3.234375 -4.125" transform="translate(225.564151, 246.677197)"/></g></g></g></svg>