<svg xmlns="http://www.w3.org/2000/svg" xmlns:xlink="http://www.w3.org/1999/xlink" viewBox="-210 25 500 500">
    <defs>
        <style>
            .cls-1{fill:none;}.cls-2{isolation:isolate;}.cls-3{opacity:0.35;}.cls-21,.cls-3{mix-blend-mode:multiply;}.cls-4{opacity:0.56;}.cls-5{fill:#2d1e56;}.cls-6{opacity:0.75;}.cls-7{fill:url(#Degradado_sin_nombre_11);}.cls-8{fill:url(#Degradado_sin_nombre_2);}.cls-15,.cls-9{fill:#fff;}.cls-10{fill:url(#Degradado_sin_nombre_2-2);}.cls-11{fill:#e2e2e2;}.cls-12{fill:url(#Degradado_sin_nombre_10);}.cls-13{fill:url(#Degradado_sin_nombre_9);}.cls-14{fill:url(#Degradado_sin_nombre_6);}.cls-15{opacity:0.29;}.cls-16{fill:url(#Degradado_sin_nombre_4);}.cls-17,.cls-38,.cls-41,.cls-42{opacity:0.3;}.cls-18{fill:url(#Degradado_sin_nombre_4-2);}.cls-19{fill:url(#Degradado_sin_nombre_9-2);}.cls-20{fill:#134261;}.cls-21{opacity:0.25;}.cls-22{fill:url(#Degradado_sin_nombre_8);}.cls-23{fill:url(#Degradado_sin_nombre_5);}.cls-24{fill:url(#Degradado_sin_nombre_5-2);}.cls-25{clip-path:url(#clip-path);}.cls-26{fill:url(#Degradado_sin_nombre_7);}.cls-27{fill:url(#Degradado_sin_nombre_5-3);}.cls-28{fill:#8e87ad;opacity:0.4;}.cls-29,.cls-33{opacity:0.42;}.cls-30,.cls-33{fill:#413351;}.cls-31{fill:url(#Degradado_sin_nombre_6-2);}.cls-32{fill:#ebebeb;opacity:0.28;}.cls-34{fill:url(#Degradado_sin_nombre_5-4);}.cls-35{fill:url(#Degradado_sin_nombre_4-3);}.cls-36{fill:url(#Degradado_sin_nombre_4-4);}.cls-37{opacity:0.31;}.cls-38{fill:url(#Degradado_sin_nombre_4-5);}.cls-39{fill:url(#Degradado_sin_nombre_3);}.cls-40{fill:url(#Degradado_sin_nombre_3-2);}.cls-41{fill:url(#Degradado_sin_nombre_4-6);}.cls-42{fill:url(#Degradado_sin_nombre_4-7);}.cls-43{fill:url(#Degradado_sin_nombre_3-3);}.cls-44{fill:url(#Degradado_sin_nombre_3-4);}.cls-45{fill:url(#Degradado_sin_nombre_3-5);}
        </style>
        <linearGradient id="Degradado_sin_nombre_11" x1="380.91" x2="380.31" y1="213.54" y2="180.52" gradientUnits="userSpaceOnUse">
            <stop offset="0" stop-color="#fff" stop-opacity="0"/>
            <stop offset="1" stop-color="#fff"/>
        </linearGradient>
        <linearGradient id="Degradado_sin_nombre_2" x1="231.75" x2="237" y1="366.88" y2="366.88" gradientUnits="userSpaceOnUse">
            <stop offset="0" stop-color="#67d690"/>
            <stop offset="1" stop-color="#00a99d"/>
        </linearGradient>
        <linearGradient id="Degradado_sin_nombre_2-2" x1="233.49" x2="270.76" y1="-179.44" y2="-78.74" gradientTransform="translate(1.23 455.69) rotate(-11.38)" xlink:href="#Degradado_sin_nombre_2"/>
        <linearGradient id="Degradado_sin_nombre_10" x1="393.81" x2="437.44" y1="301.98" y2="301.98" gradientUnits="userSpaceOnUse">
            <stop offset="0" stop-color="#9feab2"/>
            <stop offset="1" stop-color="#6ad4ab"/>
        </linearGradient>
        <linearGradient id="Degradado_sin_nombre_9" x1="236.12" x2="460.72" y1="290.15" y2="262.48" gradientUnits="userSpaceOnUse">
            <stop offset="0" stop-color="#ccc"/>
            <stop offset="1" stop-color="#fff"/>
        </linearGradient>
        <linearGradient id="Degradado_sin_nombre_6" x1="166.39" x2="169.57" y1="114.25" y2="177.35" gradientUnits="userSpaceOnUse">
            <stop offset="0" stop-color="#49b7e0"/>
            <stop offset="1" stop-color="#66ecf2"/>
        </linearGradient>
        <linearGradient id="Degradado_sin_nombre_4" x1="327.03" x2="324.94" y1="287.5" y2="324.06" gradientUnits="userSpaceOnUse">
            <stop offset="0" stop-color="#fff" stop-opacity="0"/>
            <stop offset="1" stop-color="#fff"/>
        </linearGradient>
        <linearGradient id="Degradado_sin_nombre_4-2" x1="172.97" x2="176.46" y1="209.1" y2="159.38" xlink:href="#Degradado_sin_nombre_4"/>
        <linearGradient id="Degradado_sin_nombre_9-2" x1="325.99" x2="322.89" y1="312.06" y2="357.21" xlink:href="#Degradado_sin_nombre_9"/>
        <linearGradient id="Degradado_sin_nombre_8" x1="328.73" x2="328.16" y1="248.6" y2="264.8" gradientUnits="userSpaceOnUse">
            <stop offset="0.1" stop-color="#fde04c"/>
            <stop offset="1" stop-color="#e76574"/>
        </linearGradient>
        <linearGradient id="Degradado_sin_nombre_5" x1="313.05" x2="312.86" y1="227.29" y2="256" gradientUnits="userSpaceOnUse">
            <stop offset="0.13" stop-color="#e76574"/>
            <stop offset="1" stop-color="#714091"/>
        </linearGradient>
        <linearGradient id="Degradado_sin_nombre_5-2" x1="344.22" x2="344.03" y1="227.5" y2="256.21" xlink:href="#Degradado_sin_nombre_5"/>
        <clipPath id="clip-path" transform="translate(-154 -120)">
            <path d="M326,191.82c-4.52,4.18-12.3,14.5-11.59,35.52a18.76,18.76,0,0,0,.59,4l4.94,19.07H337s4.36-15.7,5.27-19.7c2.33-10.22-1-29.41-9.82-38.74A4.6,4.6,0,0,0,326,191.82Z" class="cls-1"/>
        </clipPath>
        <linearGradient id="Degradado_sin_nombre_7" x1="328.66" x2="328.66" y1="204.14" y2="238.95" gradientUnits="userSpaceOnUse">
            <stop offset="0" stop-color="#fff"/>
            <stop offset="0.99" stop-color="#e6e6e6"/>
        </linearGradient>
        <linearGradient id="Degradado_sin_nombre_5-3" x1="173.36" x2="174.31" y1="68.16" y2="85.65" xlink:href="#Degradado_sin_nombre_5"/>
        <linearGradient id="Degradado_sin_nombre_6-2" x1="323.52" x2="331.48" y1="222.64" y2="213.66" xlink:href="#Degradado_sin_nombre_6"/>
        <linearGradient id="Degradado_sin_nombre_5-4" x1="328.91" x2="328.72" y1="227.4" y2="256.1" xlink:href="#Degradado_sin_nombre_5"/>
        <linearGradient id="Degradado_sin_nombre_4-3" x1="417.27" x2="419.24" y1="271.26" y2="241.72" xlink:href="#Degradado_sin_nombre_4"/>
        <linearGradient id="Degradado_sin_nombre_4-4" x1="252.24" x2="253.18" y1="242.71" y2="190.36" xlink:href="#Degradado_sin_nombre_4"/>
        <linearGradient id="Degradado_sin_nombre_4-5" x1="76.2" x2="66.34" y1="65.91" y2="48.89" xlink:href="#Degradado_sin_nombre_4"/>
        <linearGradient id="Degradado_sin_nombre_3" x1="158.2" x2="148.33" y1="77.67" y2="60.66" gradientUnits="userSpaceOnUse">
            <stop offset="0.14" stop-color="#42287c"/>
            <stop offset="1" stop-color="#714091"/>
        </linearGradient>
        <linearGradient id="Degradado_sin_nombre_3-2" x1="195.11" x2="185.24" y1="42.97" y2="25.95" xlink:href="#Degradado_sin_nombre_3"/>
        <linearGradient id="Degradado_sin_nombre_4-6" x1="45.47" x2="39.71" y1="127.44" y2="117.51" xlink:href="#Degradado_sin_nombre_4"/>
        <linearGradient id="Degradado_sin_nombre_4-7" x1="485.41" x2="475.54" y1="504.16" y2="487.15" gradientTransform="translate(-109.38 -484.42) rotate(8.38)" xlink:href="#Degradado_sin_nombre_4"/>
        <linearGradient id="Degradado_sin_nombre_3-3" x1="668.82" x2="664.94" y1="1502.49" y2="1495.8" gradientTransform="translate(390.93 -1506.67) rotate(36.86)" xlink:href="#Degradado_sin_nombre_3"/>
        <linearGradient id="Degradado_sin_nombre_3-4" x1="827.17" x2="823.3" y1="1311.6" y2="1304.91" gradientTransform="translate(390.93 -1506.67) rotate(36.86)" xlink:href="#Degradado_sin_nombre_3"/>
        <linearGradient id="Degradado_sin_nombre_3-5" x1="832.82" x2="828.94" y1="1382.74" y2="1376.05" gradientTransform="translate(390.93 -1506.67) rotate(36.86)" xlink:href="#Degradado_sin_nombre_3"/>
    </defs>
    <title>
        rocket_tamplate
    </title>
    <g class="cls-2">
        <g id="Objects">
            <g class="cls-4">
                <path d="M219.25,332.71c-3.21,3.42-9,3.68-13.48,2.29a12.87,12.87,0,0,1-8.72-10.1c-.49-3.21.23-6.67-1.18-9.59-1.67-3.48-5.84-5.12-7.79-8.44-1.82-3.11-1.33-7-1.93-10.54a62.62,62.62,0,0,0-2.38-7.88,14.49,14.49,0,0,1-.59-8.1c.74-2.64,3-5,5.79-5,2.35,0,4.42,1.56,6,3.34s2.8,3.84,4.66,5.29c2.8,2.19,6.52,2.68,10,3.52s7.16,2.41,8.61,5.66.12,7.75,2.21,10.83c1.3,1.93,3.62,2.84,5.53,4.17a13.53,13.53,0,0,1-6.68,24.59" class="cls-5" transform="translate(-154 -120)"/>
                <path d="M225.17,331.61a3,3,0,0,1-.49-.36c-.32-.24-.76-.62-1.32-1.13a43.72,43.72,0,0,1-4.31-4.69c-1.7-2.09-3.55-4.71-5.58-7.62s-4.25-6.12-6.59-9.48C202.21,301.59,198,295.48,195,291l-3.56-5.27c-.4-.62-.72-1.1-.94-1.45a2.24,2.24,0,0,1-.3-.53,3.12,3.12,0,0,1,.38.47l1,1.39,3.69,5.18c3.09,4.39,7.34,10.47,12,17.21l6.56,9.5c2,2.93,3.82,5.56,5.47,7.67A50,50,0,0,0,223.5,330c.53.53.95.93,1.24,1.2A2.47,2.47,0,0,1,225.17,331.61Z" class="cls-5" transform="translate(-154 -120)"/>
                <path d="M209.12,292.34a22.1,22.1,0,0,1-1.06,2,20,20,0,0,0-1,2.21,20.57,20.57,0,0,0-.79,2.85,19.19,19.19,0,0,0-.28,5.35,20.94,20.94,0,0,1,.24,2.24,6.25,6.25,0,0,1-.6-2.19,16.16,16.16,0,0,1-.18-2.48,18.54,18.54,0,0,1,.31-3,18.18,18.18,0,0,1,.86-2.91,15.46,15.46,0,0,1,1.1-2.23A6.56,6.56,0,0,1,209.12,292.34Z" class="cls-5" transform="translate(-154 -120)"/>
                <path d="M219.69,307.18a20.61,20.61,0,0,1-.95,2,21.32,21.32,0,0,0-.88,2.18,23.25,23.25,0,0,0-.71,2.77,21.51,21.51,0,0,0-.29,2.85,21.25,21.25,0,0,0,.06,2.34,17.42,17.42,0,0,1,.21,2.17,6,6,0,0,1-.57-2.12,16.46,16.46,0,0,1-.18-2.4,18.34,18.34,0,0,1,.27-2.93,17.72,17.72,0,0,1,.77-2.84,16.32,16.32,0,0,1,1-2.18A6,6,0,0,1,219.69,307.18Z" class="cls-5" transform="translate(-154 -120)"/>
                <path d="M209.74,312a20.58,20.58,0,0,1-2.29-1.17,38.06,38.06,0,0,0-5.65-2.42,28.18,28.18,0,0,0-3.27-.84,22.79,22.79,0,0,0-2.73-.33c-1.57-.09-2.55,0-2.56-.08a7.55,7.55,0,0,1,2.57-.28,17.72,17.72,0,0,1,2.81.23,23.71,23.71,0,0,1,3.34.81,28.32,28.32,0,0,1,5.67,2.6A9.33,9.33,0,0,1,209.74,312Z" class="cls-5" transform="translate(-154 -120)"/>
                <path d="M219.4,325.34a20.24,20.24,0,0,1-1.9-1.31,23.06,23.06,0,0,0-2.13-1.27,23.65,23.65,0,0,0-2.79-1.18,21.3,21.3,0,0,0-5.39-1.05,20.74,20.74,0,0,1-2.3-.11,6.93,6.93,0,0,1,2.31-.25,16.15,16.15,0,0,1,2.53.19,19.18,19.18,0,0,1,3,.74,18.66,18.66,0,0,1,2.84,1.25,17,17,0,0,1,2.12,1.38A7.25,7.25,0,0,1,219.4,325.34Z" class="cls-5" transform="translate(-154 -120)"/>
            </g>
            <g class="cls-6">
                <path d="M371.11,190.33c6.57.1,13.12.94,19.67.49,3.4-.24,7.07-.79,9.5-3.7a11.07,11.07,0,0,0,1.3-11c-1.57-3.47-5.13-5.4-8.29-4.48-3.37,1-6.44,4.78-9.74,3.51-2.33-.89-4-4.18-6.42-4s-3.69,4-5.89,5.62c-1.86,1.34-4.2.89-6.35.65s-4.67,0-6,2.06c-1.51,2.42-.47,6.18,1.55,7.95A21.26,21.26,0,0,0,371.11,190.33Z" class="cls-7" transform="translate(-154 -120)"/>
            </g>
            <path d="M232.1,368.19a2.63,2.63,0,1,1,3.59,1A2.62,2.62,0,0,1,232.1,368.19Z" class="cls-8" transform="translate(-154 -120)"/>
            <path d="M249.66,368.84a2.62,2.62,0,1,1-.22-3.7A2.61,2.61,0,0,1,249.66,368.84Z" class="cls-9" transform="translate(-154 -120)"/>
            <path d="M262.8,368.8a2.62,2.62,0,1,1,.32-3.7A2.62,2.62,0,0,1,262.8,368.8Z" class="cls-9" transform="translate(-154 -120)"/>
            <path d="M237.34,332c-6.58,3.5-15.44.95-21.48-3.43a20.48,20.48,0,0,1-8-19.67c.89-5.08,3.74-9.92,3.12-15-.75-6.08-6.2-10.68-7.43-16.69-1.15-5.6,1.56-11.2,2.47-16.85.69-4.31.33-8.7.44-13.07s.78-8.89,3.24-12.49,7.14-6,11.3-4.64c3.56,1.14,5.86,4.6,7.28,8.07s2.26,7.21,4.31,10.34c3.11,4.74,8.46,7.37,13.24,10.4s9.54,7.28,10.06,12.91c.55,5.9-3.76,11.73-2.2,17.45,1,3.56,4,6.11,6.2,9.09A21.51,21.51,0,0,1,237.34,332" class="cls-10" transform="translate(-154 -120)"/>
            <path d="M246.81,333.36s-.23-.24-.58-.77-.83-1.32-1.42-2.37a67.71,67.71,0,0,1-4.14-9.25c-1.5-4-2.95-8.9-4.52-14.32L231.05,289c-3.59-12.53-6.79-23.88-9.05-32.11-1.13-4.12-2-7.45-2.62-9.76-.3-1.16-.53-2.06-.67-2.67a3.56,3.56,0,0,1-.16-.95,3.3,3.3,0,0,1,.36.89c.21.59.5,1.48.86,2.61.71,2.28,1.72,5.59,2.94,9.68,2.44,8.17,5.75,19.49,9.34,32,1.78,6.26,3.48,12.22,5,17.66s2.89,10.31,4.29,14.33a82.81,82.81,0,0,0,3.81,9.32C246.22,332.17,246.88,333.32,246.81,333.36Z" class="cls-11" transform="translate(-154 -120)"/>
            <path d="M242.7,266.05c.09.14-1,1-2.57,2.5a30.77,30.77,0,0,0-8.37,14.59c-.53,2.13-.7,3.49-.86,3.48s-.22-1.4.14-3.63a25.23,25.23,0,0,1,3-8.24,24.91,24.91,0,0,1,5.61-6.74C241.38,266.57,242.63,266,242.7,266.05Z" class="cls-11" transform="translate(-154 -120)"/>
            <path d="M251,293.79c.1.13-.91,1-2.37,2.53a32.09,32.09,0,0,0-7.89,14.3c-.53,2.05-.71,3.37-.88,3.36s-.19-1.36.16-3.52a26,26,0,0,1,2.83-8,25.65,25.65,0,0,1,5.27-6.66C249.77,294.35,251,293.69,251,293.79Z" class="cls-11" transform="translate(-154 -120)"/>
            <path d="M233.59,296c-.12.1-1.17-1.07-2.91-2.87a63,63,0,0,0-7.28-6.49,46.64,46.64,0,0,0-4.48-2.93,36.29,36.29,0,0,0-3.92-1.91c-2.3-.95-3.82-1.34-3.78-1.51s1.6,0,4,.82a27.25,27.25,0,0,1,4.12,1.76,36.57,36.57,0,0,1,4.64,2.94,43.49,43.49,0,0,1,7.2,6.83C232.85,294.57,233.69,295.9,233.59,296Z" class="cls-11" transform="translate(-154 -120)"/>
            <path d="M241.32,321c-.15.08-.88-1.12-2.25-2.9a33.44,33.44,0,0,0-13.71-10.49c-2.06-.87-3.41-1.26-3.38-1.42s1.45,0,3.64.73a27.31,27.31,0,0,1,14,10.76C240.92,319.59,241.43,320.93,241.32,321Z" class="cls-11" transform="translate(-154 -120)"/>
            <path d="M403.45,328.79c-4.61-.86-8-5.59-9.21-10.11a12.86,12.86,0,0,1,3.81-12.79c2.43-2.15,5.73-3.41,7.44-6.17,2-3.29,1.14-7.68,2.89-11.12,1.64-3.21,5.17-4.89,7.83-7.31a62.53,62.53,0,0,0,5.35-6.25,14.42,14.42,0,0,1,6.5-4.87c2.62-.8,5.86-.14,7.37,2.15,1.3,2,1.08,4.56.41,6.82s-1.72,4.44-1.94,6.78c-.33,3.55,1.27,6.94,2.43,10.31s1.83,7.32-.12,10.3-6.46,4.28-7.93,7.71c-.92,2.13-.43,4.58-.52,6.9a13.53,13.53,0,0,1-24.31,7.65" class="cls-12" transform="translate(-154 -120)"/>
            <path d="M407.57,333.17a3.83,3.83,0,0,1,0-.6c0-.39.12-1,.24-1.72a43.09,43.09,0,0,1,1.62-6.16c.84-2.56,2-5.53,3.41-8.81l4.42-10.66c3.15-7.57,6-14.4,8.14-19.34,1.06-2.46,1.91-4.45,2.52-5.84l.71-1.58a2.32,2.32,0,0,1,.28-.54,3.15,3.15,0,0,1-.19.58c-.15.39-.35.93-.62,1.62-.57,1.4-1.37,3.42-2.37,5.9-2,5-4.85,11.83-8,19.4-1.58,3.77-3.08,7.37-4.45,10.65s-2.62,6.21-3.51,8.74a51.85,51.85,0,0,0-1.76,6.08c-.16.74-.27,1.31-.34,1.69A2.13,2.13,0,0,1,407.57,333.17Z" class="cls-11" transform="translate(-154 -120)"/>
            <path d="M432,298.47a19.09,19.09,0,0,1-2.24.18,19.85,19.85,0,0,0-2.39.37,21.48,21.48,0,0,0-2.83.87,20.44,20.44,0,0,0-2.65,1.3,19.07,19.07,0,0,0-2,1.36,21.17,21.17,0,0,1-1.76,1.4,6.77,6.77,0,0,1,1.53-1.68,14.74,14.74,0,0,1,2-1.49,18,18,0,0,1,2.71-1.37,18.79,18.79,0,0,1,2.92-.85,15.06,15.06,0,0,1,2.47-.27A6.68,6.68,0,0,1,432,298.47Z" class="cls-11" transform="translate(-154 -120)"/>
            <path d="M425.18,315.38a18.32,18.32,0,0,1-2.17.26,20.2,20.2,0,0,0-2.3.44,20.55,20.55,0,0,0-2.72.9,21.8,21.8,0,0,0-2.56,1.28,20.49,20.49,0,0,0-1.93,1.32,16.89,16.89,0,0,1-1.72,1.35,6.36,6.36,0,0,1,1.49-1.63,15.19,15.19,0,0,1,1.92-1.44,18.15,18.15,0,0,1,2.61-1.36,17.22,17.22,0,0,1,2.8-.88,16,16,0,0,1,2.38-.34A6.38,6.38,0,0,1,425.18,315.38Z" class="cls-11" transform="translate(-154 -120)"/>
            <path d="M415.75,309.61a17.4,17.4,0,0,1-.26-2.55,36.76,36.76,0,0,0-1-6.07,27.27,27.27,0,0,0-1.06-3.2,22.41,22.41,0,0,0-1.19-2.48c-.77-1.37-1.38-2.15-1.31-2.2a7.76,7.76,0,0,1,1.62,2,18.77,18.77,0,0,1,1.32,2.49,22.85,22.85,0,0,1,1.12,3.25,28.82,28.82,0,0,1,.87,6.17A10.2,10.2,0,0,1,415.75,309.61Z" class="cls-11" transform="translate(-154 -120)"/>
            <path d="M409.74,324.93a17.2,17.2,0,0,1,.08-2.3,22.24,22.24,0,0,0-.09-2.48,20.32,20.32,0,0,0-1.46-5.86,21.33,21.33,0,0,0-1.08-2.23,21.12,21.12,0,0,1-1.15-2,6.78,6.78,0,0,1,1.46,1.82,16.61,16.61,0,0,1,1.21,2.23,17.7,17.7,0,0,1,1.49,6,16.14,16.14,0,0,1,0,2.53A7.14,7.14,0,0,1,409.74,324.93Z" class="cls-11" transform="translate(-154 -120)"/>
            <path d="M244.18,236v94.51H405.37V236a9,9,0,0,0-9-9H253.2A9,9,0,0,0,244.18,236Z" class="cls-13" transform="translate(-154 -120)"/>
            <rect width="142.91" height="98.14" x="97.5" y="115.99" class="cls-14"/>
            <polygon points="98.18 210.47 189.18 106.95 210.45 106.95 120.57 210.47 98.18 210.47" class="cls-15"/>
            <polygon points="129.86 210.47 218.84 106.95 226.33 106.95 137.6 210.47 129.86 210.47" class="cls-15"/>
            <path d="M233.67,329.64c-.39-11.79,6.39-25.25,16.86-30.23a29.84,29.84,0,0,1,32.32,4.94c3.19,2.94,6.17,6.81,10.44,7.31,6,.7,10.81-5.62,16.82-6,8-.47,13.25,9.45,21.17,10.78,5.87,1,11.56-3,17.51-2.84,4.35.11,8.47,2.44,12.82,2.31,8.21-.26,13.69-8.77,21.25-12.06s16.62-.79,22.64,4.82,9.19,13.87,10.13,22.14Z" class="cls-16" transform="translate(-154 -120)"/>
            <g class="cls-17">
                <path d="M415.61,329.22c.38-16-6.25-34.32-16.48-41.09s-23.21-4-31.59,6.72c-3.13,4-6,9.25-10.21,9.93-5.85,1-10.56-7.64-16.44-8.12-7.84-.64-12.95,12.83-20.7,14.65-5.74,1.35-11.29-4.07-17.11-3.86-4.25.15-8.28,3.32-12.54,3.13-8-.35-13.37-11.91-20.76-16.38s-16.25-1.08-22.13,6.54-9,18.85-9.91,30.09Z" class="cls-9" transform="translate(-154 -120)">
                    <animate>
                        <animate attributeName="transform" attributeType="XML" dur="10s" from="154" repeatCount="indefinite" to="120"/>
                    </animate>
                </path>
            </g>
            <polygon points="168.19 129.51 165.82 207.33 183.46 207.33 180.68 128.95 168.19 129.51" class="cls-18"/>
            <path d="M233.67,329.64H415.89c0,5-5.66,9-12.64,9H246.3c-5.84,0-10.75-2.81-12.2-6.64a6.6,6.6,0,0,1-.43-2.34Z" class="cls-19" transform="translate(-154 -120)"/>
            <path d="M301.31,329.64h0a2.22,2.22,0,0,0,2.18,2.22l42.51.67a2.21,2.21,0,0,0,2.23-2.44l0-.45Z" class="cls-20" transform="translate(-154 -120)"/>
            <g>
                <path d="M322.94,250.42s1.23,14.25,6,16.78c0,0,3.64-2.22,5.48-16.78Z" class="cls-22" transform="translate(-154 -120)"/>
            </g>
            <path d="M314.75,220.5s-7.66,17-7.75,21.33,6.4,21.67,7.54,18.91-1.38-11.14,4.35-14.69l-2.64-12.11a34.74,34.74,0,0,1-1.05-6.4C315.05,225.51,314.87,222.84,314.75,220.5Z" class="cls-23" transform="translate(-154 -120)"/>
            <path d="M342.52,219.61s7.66,17,7.76,21.34-6.4,21.67-7.55,18.9,1-10.68-4.77-14.24L341,233.05a36.26,36.26,0,0,0,1.05-6.39C342.22,224.62,342.4,222,342.52,219.61Z" class="cls-24" transform="translate(-154 -120)"/>
            <g class="cls-25">
                <path d="M326,191.82c-4.52,4.18-12.3,14.5-11.59,35.52a18.76,18.76,0,0,0,.59,4l4.94,19.07H337s4.36-15.7,5.27-19.7c2.33-10.22-1-29.41-9.82-38.74A4.6,4.6,0,0,0,326,191.82Z" class="cls-26" transform="translate(-154 -120)"/>
                <polygon points="167.05 77.84 182.66 77.84 183.67 68.52 170.84 67.65 163.16 69.95 167.05 77.84" class="cls-27"/>
                <path d="M328.08,227c-1.55,9.87-4.05,18.06-8.16,23.38h6.92Z" class="cls-28" transform="translate(-154 -120)"/>
                <path d="M342,213.14s-1.36,29.44-9.26,37.28H337S346.24,226.41,342,213.14Z" class="cls-28" transform="translate(-154 -120)"/>
            </g>
            <g class="cls-29">
                <path d="M342.48,215.67a26.48,26.48,0,0,1-4.06,0c-2.49-.07-5.94-.16-9.75-.17s-7.27.08-9.77.14a25.37,25.37,0,0,1-4,0,20.66,20.66,0,0,1,4-.5c2.5-.2,6-.36,9.79-.35s7.28.17,9.78.37A20.47,20.47,0,0,1,342.48,215.67Z" class="cls-30" transform="translate(-154 -120)"/>
            </g>
            <g class="cls-29">
                <path d="M343,217.91a26.41,26.41,0,0,1-4.16-.11c-2.56-.13-6.1-.32-10-.47s-7.45-.2-10-.25a27.51,27.51,0,0,1-4.16-.19,21.13,21.13,0,0,1,4.16-.32c2.57-.08,6.12-.09,10,.05s7.46.41,10,.68A23,23,0,0,1,343,217.91Z" class="cls-30" transform="translate(-154 -120)"/>
            </g>
            <g class="cls-29">
                <path d="M337.76,249.65c0,.2-4.05.3-9,.23s-9-.29-9-.49,4.05-.3,9-.23S337.76,249.45,337.76,249.65Z" class="cls-30" transform="translate(-154 -120)"/>
            </g>
            <g class="cls-29">
                <path d="M337.5,248c0,.2-4.14.34-9.25.32s-9.24-.21-9.24-.4,4.14-.34,9.25-.32S337.5,247.84,337.5,248Z" class="cls-30" transform="translate(-154 -120)"/>
            </g>
            <path d="M334.81,217.86a6.1,6.1,0,1,1-5.45-6.69A6.09,6.09,0,0,1,334.81,217.86Z" class="cls-28" transform="translate(-154 -120)"/>
            <path d="M335.26,216.87a6.1,6.1,0,1,1-5.45-6.69A6.1,6.1,0,0,1,335.26,216.87Z" class="cls-31" transform="translate(-154 -120)"/>
            <path d="M324,219.45l8.51-8.31a7.76,7.76,0,0,1,2.08,2.29l-9,7.76S324.12,220.29,324,219.45Z" class="cls-32" transform="translate(-154 -120)"/>
            <polygon points="173.02 101.94 180.87 94.03 181.2 95.18 174.19 102.26 173.02 101.94" class="cls-32"/>
            <path d="M320.63,226.56a.46.46,0,1,1-.46-.46A.46.46,0,0,1,320.63,226.56Z" class="cls-33" transform="translate(-154 -120)"/>
            <path d="M320.63,227.9a.46.46,0,1,1-.46-.45A.45.45,0,0,1,320.63,227.9Z" class="cls-33" transform="translate(-154 -120)"/>
            <path d="M320.63,229.38a.46.46,0,1,1-.46-.46A.46.46,0,0,1,320.63,229.38Z" class="cls-33" transform="translate(-154 -120)"/>
            <path d="M329,226.59s-2.49.38-2.49,12.22c0,14.42.76,22,2,21.88S333.73,225.92,329,226.59Z" class="cls-34" transform="translate(-154 -120)"/>
            <g class="cls-29">
                <path d="M332.81,221.18c.05,0-.5.67-1.72,1.09a5.86,5.86,0,0,1-7.68-4.57,3,3,0,0,1,.14-2c.12,0,0,.78.36,1.92a5.78,5.78,0,0,0,7,4.19C332.11,221.52,332.74,221.08,332.81,221.18Z" class="cls-30" transform="translate(-154 -120)"/>
            </g>
            <g class="cls-17">
                <path d="M408.66,260.78c7,.09,14,.83,21,.43,3.62-.21,7.54-.69,10.13-3.23a8,8,0,0,0-7.45-13.48c-3.59.85-6.86,4.16-10.39,3.06-2.48-.77-4.25-3.65-6.85-3.45s-3.94,3.53-6.27,4.91c-2,1.17-4.49.78-6.79.57s-5,0-6.38,1.79c-1.61,2.11-.5,5.39,1.66,6.94A26.27,26.27,0,0,0,408.66,260.78Z" class="cls-35" transform="translate(-154 -120)"/>
            </g>
            <g class="cls-17">
                <path d="M239,222.47c9.83.12,19.64,1.15,29.45.59,5.08-.28,10.59-1,14.22-4.53a11.22,11.22,0,0,0-10.46-18.93c-5,1.2-9.64,5.85-14.58,4.31-3.5-1.1-6-5.13-9.62-4.85-3.8.29-5.53,5-8.81,6.89-2.8,1.64-6.3,1.09-9.52.8s-7-.05-9,2.52c-2.26,3-.71,7.57,2.32,9.74C223,219,229.18,222.34,239,222.47Z" class="cls-36" transform="translate(-154 -120)"/>
            </g>
            <g class="cls-37">
                <path d="M322,202.2c.32.21-.44,1.86-1.45,4.52a49.75,49.75,0,0,0-1.55,4.73,50.3,50.3,0,0,0-1.22,5.93,52.71,52.71,0,0,0-.4,6c0,1.87.09,3.56.23,5,.27,2.84.57,4.63.2,4.74s-1.25-1.51-2-4.42a27.94,27.94,0,0,1-.82-5.21,34.12,34.12,0,0,1,.22-6.47,34.51,34.51,0,0,1,1.51-6.29,28.87,28.87,0,0,1,2.17-4.81C320.43,203.33,321.76,202,322,202.2Z" class="cls-9" transform="translate(-154 -120)"/>
            </g>
            <polygon points="67.08 52.3 69.13 47.87 71.75 51.98 76.18 54.03 72.07 56.66 70.02 61.09 67.4 56.97 62.97 54.92 67.08 52.3" class="cls-38"/>
            <polygon points="149.08 64.07 151.12 59.64 153.75 63.75 158.18 65.8 154.06 68.42 152.02 72.85 149.39 68.74 144.96 66.69 149.08 64.07" class="cls-39"/>
            <polygon points="185.99 29.36 188.03 24.93 190.66 29.05 195.09 31.09 190.97 33.72 188.93 38.15 186.3 34.03 181.87 31.99 185.99 29.36" class="cls-40"/>
            <polygon points="40.15 119.49 41.34 116.91 42.88 119.31 45.46 120.5 43.06 122.04 41.86 124.62 40.33 122.22 37.75 121.03 40.15 119.49" class="cls-41"/>
            <polygon points="305.04 123.36 306.24 120.78 307.77 123.18 310.36 124.37 307.95 125.91 306.76 128.49 305.23 126.09 302.64 124.9 305.04 123.36" class="cls-5"/>
            <polygon points="290.28 70.33 292.95 66.24 294.95 70.7 299.04 73.37 294.58 75.37 291.91 79.45 289.91 75 285.83 72.33 290.28 70.33" class="cls-42"/>
            <polygon points="124.71 46.29 126.4 45.38 126.25 47.29 127.16 48.98 125.25 48.84 123.56 49.75 123.71 47.83 122.8 46.15 124.71 46.29" class="cls-5"/>
            <polygon points="25.2 90.2 26.89 89.29 26.75 91.2 27.66 92.89 25.74 92.75 24.05 93.66 24.2 91.74 23.29 90.06 25.2 90.2" class="cls-43"/>
            <polygon points="266.39 32.45 268.08 31.54 267.94 33.45 268.85 35.14 266.93 35 265.25 35.91 265.39 33.99 264.48 32.31 266.39 32.45" class="cls-44"/>
            <polygon points="228.24 92.75 229.93 91.84 229.78 93.76 230.69 95.44 228.78 95.3 227.09 96.21 227.24 94.3 226.33 92.61 228.24 92.75" class="cls-45"/>
        </g>
    </g>
</svg>
